<?xml version="1.0" standalone="no"?>
<!DOCTYPE svg PUBLIC "-//W3C//DTD SVG 1.1//EN" "http://www.w3.org/Graphics/SVG/1.1/DTD/svg11.dtd" >
<svg xmlns="http://www.w3.org/2000/svg">
<metadata>Generated by IcoMoon</metadata>
<defs>
<font id="cot-icons" horiz-adv-x="1024">
<font-face units-per-em="1024" ascent="960" descent="-64" />
<missing-glyph horiz-adv-x="1024" />
<glyph unicode="&#x20;" horiz-adv-x="512" d="" />
<glyph unicode="&#xe600;" glyph-name="closeicon" d="M785.313 448l220.672 220.586c11.605 11.691 18.005 27.136 18.005 43.605s-6.4 31.914-18.005 43.52l-186.283 186.283c-11.605 11.605-27.050 18.005-43.52 18.005s-31.914-6.4-43.605-18.005l-220.586-220.672-119.125 119.125c-6.571 6.571-17.323 6.656-23.979 0-6.571-6.656-6.571-17.323 0-23.979l131.072-131.072c3.242-3.157 7.51-4.949 12.032-4.949s8.79 1.792 11.947 4.949l232.618 232.618c5.206 5.206 12.202 8.107 19.627 8.107s14.336-2.902 19.542-8.107l186.283-186.198c5.206-5.291 8.107-12.202 8.107-19.627s-2.902-14.336-8.107-19.627l-232.618-232.618c-6.656-6.571-6.656-17.323 0-23.893l232.618-232.618c5.206-5.291 8.107-12.202 8.107-19.627s-2.902-14.336-8.107-19.627l-186.283-186.198c-10.752-10.752-28.33-10.752-39.169 0l-87.723 87.723c-6.571 6.571-17.323 6.571-23.893 0-6.656-6.656-6.656-17.323 0-23.979l87.638-87.723c12.032-11.947 27.819-18.005 43.605-18.005s31.574 6.059 43.52 18.005l186.198 186.283c11.691 11.605 18.090 27.050 18.090 43.52s-6.4 31.914-18.005 43.605l-220.672 220.586zM620.96 113.664l-97.024 96.938c-3.157 3.157-7.424 4.949-11.947 4.949s-8.79-1.792-12.032-4.949l-232.533-232.618c-5.291-5.206-12.202-8.107-19.627-8.107s-14.336 2.902-19.627 8.107l-186.198 186.198c-10.837 10.837-10.837 28.417 0 39.254l232.618 232.618c3.157 3.157 4.949 7.424 4.949 11.947s-1.792 8.79-4.949 12.032l-232.618 232.533c-10.837 10.837-10.837 28.417 0 39.254l186.198 186.198c5.291 5.206 12.202 8.107 19.627 8.107s14.336-2.902 19.627-8.107l53.59-53.59c6.571-6.656 17.323-6.656 23.893 0 6.656 6.571 6.656 17.323 0 23.979l-53.59 53.59c-11.605 11.605-27.050 18.005-43.52 18.005s-31.914-6.4-43.605-18.005l-186.198-186.283c-23.979-23.979-23.979-63.062 0-87.126l220.672-220.586-220.672-220.586c-23.979-24.064-23.979-63.147 0-87.126l186.198-186.283c11.691-11.605 27.136-18.005 43.605-18.005s31.914 6.4 43.605 18.005l220.586 220.672 84.992-84.992c6.571-6.656 17.323-6.656 23.979 0 6.571 6.571 6.571 17.323 0 23.979z" />
<glyph unicode="&#xe601;" glyph-name="sub-menu" d="M622.781 960h-221.563c-22.313 0-40.449-18.156-40.449-40.449v-221.582c0-22.292 18.136-40.449 40.449-40.449h221.563c22.313 0 40.449 18.156 40.449 40.449v221.582c0 22.292-18.136 40.449-40.449 40.449zM629.329 697.97c0-3.595-2.932-6.527-6.547-6.527h-221.563c-3.616 0-6.547 2.932-6.547 6.527v221.582c0 3.595 2.932 6.527 6.547 6.527h221.563c3.616 0 6.547-2.932 6.547-6.527v-221.582zM622.781 599.22h-221.563c-22.313 0-40.449-18.136-40.449-40.449v-109.697c0-9.358 7.592-16.95 16.95-16.95s16.95 7.592 16.95 16.95v109.697c0 3.616 2.932 6.547 6.547 6.547h221.563c3.616 0 6.547-2.932 6.547-6.547v-221.563c0-3.616-2.932-6.547-6.547-6.547h-221.563c-3.616 0-6.547 2.932-6.547 6.547v42.658c0 9.358-7.592 16.95-16.95 16.95s-16.95-7.592-16.95-16.95v-42.658c0-22.313 18.136-40.449 40.449-40.449h221.563c22.313 0 40.449 18.136 40.449 40.449v221.563c0 22.313-18.136 40.449-40.449 40.449zM622.781 238.458h-221.563c-22.313 0-40.449-18.156-40.449-40.449v-221.582c0-22.292 18.136-40.428 40.449-40.428h123.655c9.358 0 16.95 7.571 16.95 16.95 0 9.358-7.592 16.95-16.95 16.95h-123.655c-3.616 0-6.547 2.932-6.547 6.527v221.582c0 3.595 2.932 6.527 6.547 6.527h221.563c3.616 0 6.547-2.932 6.547-6.527v-221.582c0-3.595-2.932-6.527-6.547-6.527h-28.7c-9.358 0-16.95-7.592-16.95-16.95 0-9.379 7.592-16.95 16.95-16.95h28.7c22.313 0 40.449 18.136 40.449 40.428v221.582c0 22.292-18.136 40.449-40.449 40.449z" />
<glyph unicode="&#xe602;" glyph-name="bike-maps" d="M512 959.999c-217.424 0-394.32-176.896-394.32-394.32 0-90.176 31.232-178.288 87.952-248.208 0.080-0.128 0.176-0.24 0.272-0.368l290.304-373.376c3.792-4.88 9.616-7.729 15.792-7.729s12 2.848 15.792 7.712l116.592 149.904c6.784 8.72 5.216 21.296-3.504 28.064-8.72 6.784-21.28 5.216-28.064-3.504l-100.816-129.6-273.968 352.352c-0.255 0.384-0.529 0.736-0.816 1.088-51.28 62.929-79.536 142.368-79.536 223.664 0 195.376 158.944 354.32 354.32 354.32s354.32-158.944 354.32-354.32c0-82.177-28.784-162.272-81.023-225.504-0.688-0.848-1.313-1.729-1.84-2.64l-71.408-91.792c-6.784-8.72-5.216-21.28 3.504-28.064s21.28-5.216 28.064 3.504l73.104 93.968c0.432 0.544 0.816 1.12 1.184 1.712 57.040 70.048 88.416 158.304 88.416 248.816 0 217.424-176.896 394.32-394.32 394.32zM692.32 187.759c-8.72 6.8-21.28 5.232-28.080-3.472l-0.416-0.544c-6.784-8.704-5.232-21.264 3.472-28.064 3.664-2.848 7.984-4.223 12.288-4.223 5.952 0 11.839 2.64 15.792 7.696l0.416 0.544c6.784 8.704 5.232 21.28-3.472 28.064zM275.552 460.35l-1.024 1.024c-7.808 7.808-20.48 7.808-28.288 0s-7.808-20.48 0-28.288c0.464-0.464 0.945-0.928 1.407-1.392 3.888-3.792 8.929-5.664 13.952-5.664 5.216 0 10.416 2.016 14.336 6.048 7.696 7.904 7.536 20.576-0.384 28.271zM686.224 654.095c-11.312 0-22.288-1.455-32.752-4.192l-32.016 73.504c-0.032 0.064-0.048 0.128-0.080 0.192 0 0-0.016 0.016-0.016 0.016l-5.584 12.848h60.176c5.904 0 10.72-4.816 10.72-10.736s-4.816-10.736-10.72-10.736h-2.224c-11.040 0-20-8.944-20-20 0-11.040 8.96-20 20-20h2.224c27.968 0 50.72 22.768 50.72 50.736s-22.752 50.736-50.72 50.736h-90.704c-0.016 0-0.032 0-0.032 0-0.207 0-0.4-0.016-0.592-0.032-0.192 0-0.4-0.016-0.577-0.032-2.288-0.128-4.576-0.64-6.784-1.6-10.129-4.416-14.768-16.208-10.352-26.32l5.568-12.784h-137.216l-10.992 20.304c8.272 2.448 14.32 10.096 14.32 19.168 0 11.040-8.96 20-20 20h-61.888c-11.040 0-20-8.96-20-20s8.96-20 20-20h22.528l17.936-33.104-29.329-71.472c-9.728 2.304-19.792 3.504-30.048 3.504-34.593 0-67.104-13.455-91.552-37.904-27.296-27.312-40.928-65.040-37.376-103.52 1.024-10.992 10.752-19.088 21.761-18.080 11.007 1.024 19.088 10.768 18.080 21.761-2.464 26.607 6.96 52.672 25.823 71.552 16.896 16.896 39.36 26.193 63.264 26.193 4.928 0 9.807-0.416 14.592-1.2l-33.104-80.672c-2.528-6.161-1.823-13.184 1.888-18.72 3.728-5.552 9.952-8.864 16.624-8.864h87.152c-3.616-15.872-11.568-30.928-23.888-43.264-16.736-16.72-38.96-26.032-62.624-26.208-11.040-0.080-19.936-9.088-19.856-20.145 0.080-10.992 9.023-19.856 20-19.856 0.048 0 0.096 0 0.144 0 34.223 0.255 66.416 13.712 90.608 37.92 20.145 20.145 32.224 45.345 36.304 71.552h61.216c0.384 0 0.768 0.016 1.152 0.032 7.76 0.448 14.544 5.344 17.408 12.56l14.864 37.264c-2.288-9.6-3.52-19.584-3.52-29.856 0-71.392 58.080-129.472 129.472-129.472 71.377 0 129.456 58.080 129.456 129.472s-58.064 129.456-129.456 129.456zM367.616 544.639l21.776 53.072c4.112-2.912 8.016-6.176 11.664-9.807 12.32-12.336 20.272-27.408 23.888-43.264h-57.328zM465.632 544.639c-4.080 26.208-16.16 51.393-36.304 71.536-7.455 7.472-15.68 13.904-24.48 19.248l16.913 41.216 71.504-132h-27.632zM524.080 571.727l-67.152 123.968h116.561l-49.407-123.968zM574.176 589.375l29.648 74.368 13.008-29.888c-17.536-11.184-32.208-26.464-42.656-44.48zM686.224 435.167c-49.344 0-89.472 40.129-89.472 89.472 0 29.44 14.304 55.6 36.32 71.92l34.816-79.92c3.28-7.52 10.624-12.016 18.336-12.016 2.672 0 5.377 0.544 7.984 1.68 10.129 4.4 14.752 16.192 10.352 26.32l-34.816 79.936c5.344 0.993 10.848 1.536 16.48 1.536 49.328 0 89.456-40.129 89.456-89.456 0-49.344-40.129-89.472-89.456-89.472z" />
<glyph unicode="&#xe603;" d="M988.687-11.039h-953.375c-19.503 0-35.312 15.807-35.312 35.312v812.143c0 19.503 15.807 35.312 35.312 35.312h953.375c19.503 0 35.312-15.807 35.312-35.312v-812.143c0-19.488-15.807-35.312-35.312-35.312z" />
<glyph unicode="&#xe604;" d="M1023.999 695.168h-1023.998v141.248c0 19.503 15.807 35.312 35.312 35.312h953.375c19.503 0 35.312-15.807 35.312-35.312v-141.248z" />
<glyph unicode="&#xe605;" d="M0 695.168h1023.998v-35.312h-1023.998v35.312z" />
<glyph unicode="&#xe606;" d="M203.023 792.272c0-29.249-23.711-52.96-52.96-52.96s-52.96 23.711-52.96 52.96c0 29.249 23.711 52.96 52.96 52.96s52.96-23.711 52.96-52.96z" />
<glyph unicode="&#xe607;" d="M150.064 765.792c-14.624 0-26.48 11.856-26.48 26.48v88.288c0 14.624 11.856 26.48 26.48 26.48s26.48-11.856 26.48-26.48v-88.288c0.016-14.624-11.856-26.48-26.48-26.48z" />
<glyph unicode="&#xe608;" d="M150.064 818.751c-14.624 0-26.48 11.872-26.48 26.496v-52.976c0-14.624 11.856-26.48 26.48-26.48s26.48 11.856 26.48 26.48v52.976c0.016-14.624-11.856-26.496-26.48-26.496z" />
<glyph unicode="&#xe609;" d="M926.895 792.272c0-29.249-23.711-52.96-52.96-52.96s-52.96 23.711-52.96 52.96c0 29.249 23.711 52.96 52.96 52.96s52.96-23.711 52.96-52.96z" />
<glyph unicode="&#xe60a;" d="M873.935 765.792c-14.624 0-26.48 11.856-26.48 26.48v88.288c0 14.624 11.856 26.48 26.48 26.48s26.48-11.856 26.48-26.48v-88.288c0-14.624-11.856-26.48-26.48-26.48z" />
<glyph unicode="&#xe60b;" d="M873.935 818.751c-14.624 0-26.48 11.872-26.48 26.496v-52.976c0-14.624 11.856-26.48 26.48-26.48s26.48 11.856 26.48 26.48v52.976c0-14.624-11.856-26.496-26.48-26.496z" />
<glyph unicode="&#xe60c;" d="M470.192 337.216c-1.904 0.448-2.096 2.88-0.272 3.584 41.76 16.177 66.736 52 66.736 98.048 0 65.103-56.64 112.367-134.672 112.367-67.536 0-119.055-35.328-134.479-92.192-1.968-7.248-0.496-14.816 4.048-20.752 4.432-5.808 11.184-9.136 18.48-9.136 10.576 0 19.84 7.232 22.528 17.6 9.696 37.648 43.28 61.024 87.648 61.024 53.312 0 87.728-29.007 87.728-73.904 0-45.424-36.784-77.151-89.456-77.151h-32.287c-11.664 0-21.136-9.472-21.136-21.136 0-11.648 9.472-21.136 21.136-21.136h34.016c66.144 0 105.616-30.912 105.616-82.72 0-47.584-42.8-82.128-101.792-82.128-50.896 0-90.272 24.784-100.336 63.167-2.816 10.656-12.207 18.096-22.816 18.096-7.296 0-14.048-3.312-18.528-9.088-4.576-5.904-6.128-13.488-4.24-20.768 14.896-57.616 72.288-94.848 146.208-94.848 85.808 0 150.512 54.496 150.512 126.752 0 53.344-32.464 92.272-84.64 104.32z" />
<glyph unicode="&#xe60d;" d="M722.591 545.039c-11.887-0.048-23.328-3.584-33.088-10.256-12.352-8.432-30.336-20.944-47.744-33.040-17.377-12.064-34.16-23.728-44.144-30.512-6.048-4.112-9.68-10.928-9.68-18.224 0-8.208 4.512-15.68 11.745-19.52 7.296-3.872 15.776-3.408 22.624 1.248 17.632 11.984 64.72 45.104 77.248 53.935 1.328 0.945 3.104-0.064 3.104-1.696v-350.607c0-12.945 10.545-23.471 23.471-23.471s23.471 10.528 23.471 23.471v381.903c0 14.848-12.161 26.816-27.008 26.768z" />
<glyph unicode="&#xe60e;" d="M952.415 251.454h-118.896v-218.4h118.896c26.688 0 48.529 21.84 48.529 48.544v121.328c0 26.688-21.84 48.529-48.529 48.529z" />
<glyph unicode="&#xe60f;" d="M952.415 557.199h-118.896v-218.4h118.896c26.688 0 48.529 21.84 48.529 48.544v121.313c0 26.704-21.84 48.544-48.529 48.544z" />
<glyph unicode="&#xe610;" d="M952.415 862.944h-118.896v-218.4h118.896c26.688 0 48.529 21.84 48.529 48.544v121.328c0 26.688-21.84 48.529-48.529 48.529z" />
<glyph unicode="&#xe611;" d="M299.678 959.999v-1024h-101.92c-53.377 0-97.056 43.68-97.056 97.056v829.888c0 53.377 43.68 97.056 97.056 97.056h101.92z" />
<glyph unicode="&#xe612;" d="M882.047 862.944v-829.888c0-53.377-43.68-97.056-97.056-97.056h-485.312v1024h485.312c53.377 0 97.056-43.68 97.056-97.056z" />
<glyph unicode="&#xe613;" d="M154.079 787.711h-106.768c-13.392 0-24.255 10.864-24.255 24.272s10.864 24.272 24.255 24.272h106.768c13.407 0 24.272-10.864 24.272-24.272s-10.864-24.272-24.272-24.272z" />
<glyph unicode="&#xe614;" d="M154.079 545.055h-106.768c-13.392 0-24.255 10.864-24.255 24.272s10.864 24.272 24.255 24.272h106.768c13.407 0 24.272-10.864 24.272-24.272s-10.864-24.272-24.272-24.272z" />
<glyph unicode="&#xe615;" d="M154.079 302.414h-106.768c-13.392 0-24.255 10.864-24.255 24.255 0 13.407 10.864 24.272 24.255 24.272h106.768c13.407 0 24.272-10.864 24.272-24.272 0-13.392-10.864-24.255-24.272-24.255z" />
<glyph unicode="&#xe616;" d="M154.079 59.759h-106.768c-13.392 0-24.255 10.864-24.255 24.255 0 13.407 10.864 24.272 24.255 24.272h106.768c13.407 0 24.272-10.864 24.272-24.272 0-13.392-10.864-24.255-24.272-24.255z" />
<glyph unicode="&#xe617;" d="M968.707 447.999c0-251.1-204.473-454.655-456.704-454.655s-456.704 203.556-456.704 454.655c0 251.1 204.473 454.655 456.704 454.655s456.704-203.556 456.704-454.655z" />
<glyph unicode="&#xe618;" d="M583.14 788.75l-71.136 28.976-71.136-28.464v-825.183h142.271v824.671z" />
<glyph unicode="&#xe619;" d="M412.42 590.079l-85.376 56.912v-426.815h85.376v369.903z" />
<glyph unicode="&#xe61a;" d="M696.964 504.719l-85.376-56.912v-284.544h85.376v341.456z" />
<glyph unicode="&#xe61b;" d="M514.259 959.998c158.416-0.752 314.015-78.416 409.632-207.023 110.287-148.352 132.031-357.76 50.352-527.151-69.088-143.28-207.648-250.896-364.751-281.023-159.776-30.656-333.039 19.952-451.295 133.392-99.008 94.944-157.776 230.496-157.776 369.616 0 167.44 87.088 332.080 228.432 426.367 83.024 55.392 181.919 85.344 282.112 85.823 1.104 0 2.193 0 3.296 0zM511.14 903.086c-138.016-0.656-274.816-67.503-360.016-178.608-101.264-132.048-122.688-320.88-48.88-473.951 61.36-127.264 184.687-223.072 324.207-249.84 142.080-27.248 295.919 17.6 401.184 118.576 124.24 119.151 173.024 312.112 114.96 478.448-61.072 174.976-235.599 304.463-428.512 305.376-0.976 0-1.968 0-2.944 0z" />
<glyph unicode="&#xe61c;" glyph-name="court" d="M1011.108 37.889h-19.262v10.815c0 33.659-27.388 61.063-61.047 61.063h-236.381c-33.659 0-61.063-27.404-61.063-61.063v-10.815h-19.245c-7.055 0-12.798-5.727-12.798-12.798v-76.276c0-7.086 5.744-12.814 12.798-12.814h396.997c7.071 0 12.798 5.727 12.798 12.814v76.276c0 7.071-5.744 12.798-12.798 12.798zM658.969 48.703c0 19.533 15.901 35.435 35.435 35.435h236.381c19.549 0 35.451-15.886 35.451-35.435v-10.815h-307.267v10.815zM998.294-38.388h-371.368v50.664h371.368v-50.664zM1013.779 616.171c-8.047 10.575-19.726 17.406-32.876 19.214-11.71 1.632-23.229-1.152-33.083-7.359l-186.564 245.627c8.639 7.839 14.366 18.173 15.982 29.868 1.792 13.166-1.647 26.252-9.678 36.843-16.59 21.837-47.865 26.124-69.717 9.519l-266.76-202.626c-21.852-16.574-26.124-47.849-9.519-69.702 8.031-10.575 19.709-17.389 32.876-19.197 2.304-0.303 4.575-0.464 6.863-0.464 9.327 0 18.334 2.768 26.268 7.775l67.094-88.323-517.89-347.020c-19.277-13.326-31.915-33.419-35.61-56.567-3.696-23.165 2.080-46.17 16.269-64.838 14.158-18.669 34.795-30.428 58.072-33.099 3.311-0.368 6.622-0.56 9.902-0.56 19.774 0 38.714 6.815 54.152 19.645l479.864 397.157 54.648-71.958c-8.623-7.839-14.366-18.189-15.966-29.883-1.808-13.182 1.632-26.252 9.663-36.843 9.791-12.862 24.653-19.629 39.69-19.629 10.495 0 21.053 3.296 30.027 10.111l266.76 202.626c10.575 8.031 17.406 19.709 19.214 32.876 1.792 13.166-1.647 26.236-9.678 36.81zM475.78 688.432c-5.151-3.903-11.486-5.535-17.87-4.687-6.383 0.864-12.046 4.191-15.949 9.327-8.047 10.591-5.967 25.773 4.624 33.835l266.76 202.609c4.239 3.215 9.31 4.927 14.526 4.927 1.104 0 2.224-0.080 3.328-0.24 6.399-0.864 12.063-4.176 15.966-9.31s5.567-11.486 4.687-17.885c-0.88-6.383-4.176-12.046-9.31-15.934v-0.016l-266.76-202.626zM123.192 114.629c-12.606-10.495-28.492-15.198-44.778-13.359-16.285 1.871-30.683 10.079-40.602 23.133-9.902 13.054-13.95 29.147-11.358 45.338 2.592 16.174 11.422 30.219 24.749 39.418l518.994 347.756 33.739-44.425-480.744-397.86zM508.159 680.881l232.973 176.934 186.037-244.924-232.957-176.95-186.052 244.939zM998.087 582.816c-0.864-6.399-4.176-12.046-9.327-15.966l-266.745-202.609c-10.606-8.031-25.788-5.967-33.835 4.639-3.903 5.119-5.567 11.47-4.687 17.87 0.864 6.383 4.176 12.046 9.31 15.949l266.76 202.626c4.239 3.232 9.31 4.912 14.542 4.912 1.104 0 2.207-0.064 3.328-0.224 6.383-0.864 12.046-4.191 15.949-9.327 3.919-5.136 5.583-11.486 4.703-17.87z" />
<glyph unicode="&#xe61d;" glyph-name="court-calendar" d="M156.19 658.497c-38.64 0-70.080-31.44-70.080-70.096 0-38.64 31.44-70.080 70.080-70.080 38.655 0 70.096 31.44 70.096 70.080 0 38.655-31.44 70.096-70.096 70.096zM156.19 548.433c-22.032 0-39.968 17.936-39.968 39.968 0 22.048 17.936 39.984 39.968 39.984 22.048 0 39.984-17.936 39.984-39.984 0-22.032-17.936-39.968-39.984-39.968zM333.998 658.497c-38.655 0-70.096-31.44-70.096-70.096 0-38.64 31.44-70.080 70.096-70.080 38.64 0 70.080 31.44 70.080 70.080 0 38.655-31.44 70.096-70.080 70.096zM333.998 548.433c-22.048 0-39.984 17.936-39.984 39.968 0 22.048 17.936 39.984 39.984 39.984 22.032 0 39.968-17.936 39.968-39.984 0-22.032-17.936-39.968-39.968-39.968zM511.79 658.497c-38.64 0-70.096-31.44-70.096-70.096 0-38.64 31.44-70.080 70.096-70.080 38.64 0 70.080 31.44 70.080 70.080 0 38.655-31.44 70.096-70.080 70.096zM511.79 548.433c-22.048 0-39.984 17.936-39.984 39.968 0 22.048 17.936 39.984 39.984 39.984s39.968-17.936 39.968-39.984c0-22.032-17.92-39.968-39.968-39.968zM689.581 658.497c-38.64 0-70.080-31.44-70.080-70.096 0-38.64 31.44-70.080 70.080-70.080 38.655 0 70.080 31.44 70.080 70.080 0 38.655-31.44 70.096-70.080 70.096zM689.581 548.433c-22.032 0-39.968 17.936-39.968 39.968 0 22.048 17.936 39.984 39.968 39.984 22.048 0 39.984-17.936 39.984-39.984 0-22.032-17.936-39.968-39.984-39.968zM867.373 658.497c-38.64 0-70.080-31.44-70.080-70.096 0-38.64 31.44-70.080 70.080-70.080s70.096 31.44 70.096 70.080c0 38.655-31.44 70.096-70.096 70.096zM867.373 548.433c-22.032 0-39.968 17.936-39.968 39.968 0 22.048 17.936 39.984 39.968 39.984 22.048 0 39.984-17.936 39.984-39.984 0-22.032-17.936-39.968-39.984-39.968zM156.19 489.313c-38.64 0-70.080-31.44-70.080-70.080s31.44-70.080 70.080-70.080c38.655 0 70.096 31.44 70.096 70.080s-31.44 70.080-70.096 70.080zM156.19 379.265c-22.032 0-39.968 17.92-39.968 39.968s17.936 39.984 39.968 39.984c22.048 0 39.984-17.936 39.984-39.984s-17.936-39.968-39.984-39.968zM303.726 482.465c-7.504-3.6-10.656-12.592-7.072-20.096 3.6-7.488 12.592-10.656 20.080-7.056 26.287 12.592 57.232-6.577 57.232-36.080 0-22.048-17.936-39.984-39.968-39.984-22.223 0-40.608 18.336-39.968 41.216 0.255 8.32-6.288 15.248-14.592 15.504-33.344 0.976-12.704-86.816 54.56-86.816 38.64 0 70.080 31.44 70.080 70.080 0 51.616-54.096 85.392-100.352 63.232zM511.79 489.313c-38.64 0-70.096-31.44-70.096-70.080s31.44-70.080 70.096-70.080c38.64 0 70.080 31.44 70.080 70.080s-31.44 70.080-70.080 70.080zM511.79 379.265c-22.048 0-39.984 17.92-39.984 39.968s17.936 39.984 39.984 39.984c22.048 0 39.968-17.936 39.968-39.984s-17.92-39.968-39.968-39.968zM156.19 320.145c-38.64 0-70.080-31.44-70.080-70.080s31.44-70.096 70.080-70.096c38.64 0 70.096 31.455 70.096 70.096s-31.455 70.080-70.096 70.080zM156.19 210.081c-22.032 0-39.968 17.936-39.968 39.984 0 22.032 17.936 39.968 39.968 39.968 22.048 0 39.984-17.936 39.984-39.968 0-22.048-17.936-39.984-39.984-39.984zM333.998 320.145c-38.655 0-70.096-31.44-70.096-70.080s31.44-70.096 70.096-70.096c38.64 0 70.080 31.455 70.080 70.096s-31.44 70.080-70.080 70.080zM333.998 210.081c-22.032 0-39.984 17.936-39.984 39.984 0 22.032 17.952 39.968 39.984 39.968 22.048 0 39.968-17.936 39.968-39.968 0-22.048-17.92-39.984-39.968-39.984zM608.957 313.010c-48.384-47.232-70.096-113.471-60.784-178.864 1.168-8.239 8.816-13.968 17.024-12.784 8.224 1.168 13.952 8.8 12.784 17.024-15.408 108.144 69.951 203.839 176.576 203.839 99.136 0 180.752-82.72 178.496-182.56-2.224-96.976-83.872-176.544-182.496-174.303-67.008 1.52-126.912 39.92-156.368 100.192-3.648 7.472-12.656 10.576-20.128 6.928-7.472-3.664-10.576-12.671-6.928-20.145 34.416-70.432 104.432-115.296 182.751-117.088 118.16-2.576 213.328 92.304 213.328 208.592 0 184.576-223.024 277.248-354.255 149.168zM755.422 298.497c-8.304 0-15.040-6.736-15.040-15.056v-107.584l-24.64 14.304c-7.2 4.177-16.416 1.744-20.576-5.456-4.177-7.184-1.744-16.4 5.456-20.576l47.248-27.439c10.016-5.824 22.608 1.424 22.608 13.024v133.728c0 8.32-6.736 15.056-15.056 15.056zM1014.941 812.337c0 38.72-31.488 70.24-70.24 70.24h-6.976c-7.216 43.856-45.376 77.423-91.248 77.423s-84.016-33.568-91.232-77.423h-40.656c-7.216 43.856-45.36 77.423-91.232 77.423s-84.032-33.568-91.248-77.423h-40.656c-7.2 43.856-45.36 77.423-91.232 77.423s-84.032-33.568-91.232-77.423h-40.656c-7.216 43.856-45.376 77.423-91.248 77.423s-84.016-33.568-91.232-77.423h-6.976c-38.752 0-70.24-31.52-70.24-70.24 0-30.48 0-595.36 0-610.143 0-38.72 31.488-70.24 70.24-70.24h423.215c38.624-149.744 197.584-232.4 341.136-180.336 7.808 2.832 11.872 11.471 9.023 19.28-2.832 7.823-11.471 11.856-19.28 9.023-208.448-75.696-397.52 163.008-267.855 348.543 98.352 141.424 317.759 130.415 396.56-30.288 51.119-104.256 16.624-229.024-78.384-292.768-6.896-4.608-8.752-13.968-4.112-20.864 4.624-6.912 13.968-8.752 20.88-4.112 72.176 48.384 115.296 129.328 115.296 216.528 0 34.16-0.352-168.416-0.416 615.376zM846.477 929.889c29.216 0 53.776-20.176 60.528-47.312h-121.039c6.752 27.136 31.312 47.312 60.512 47.312zM623.357 929.889c29.2 0 53.776-20.176 60.528-47.312h-121.056c6.752 27.136 31.328 47.312 60.528 47.312zM400.222 929.889c29.2 0 53.776-20.176 60.528-47.312h-121.056c6.752 27.136 31.328 47.312 60.528 47.312zM177.085 929.889c29.2 0 53.776-20.176 60.528-47.312h-121.056c6.768 27.136 31.328 47.312 60.528 47.312zM38.75 812.337c0 22.112 17.984 40.128 40.128 40.128h6.976c7.216-43.856 45.376-77.44 91.232-77.44 8.32 0 15.056 6.752 15.056 15.056 0 8.32-6.736 15.056-15.056 15.056-29.2 0-53.776 20.176-60.528 47.328 18.945 0 173.536 0 192.432 0 7.2-43.871 45.36-77.44 91.232-77.44 8.32 0 15.056 6.736 15.056 15.056s-6.736 15.056-15.056 15.056c-29.2 0-53.776 20.176-60.528 47.328 18.945 0 173.536 0 192.416 0 7.216-43.871 45.376-77.44 91.248-77.44 8.32 0 15.056 6.736 15.056 15.056s-6.736 15.056-15.056 15.056c-29.2 0-53.776 20.176-60.528 47.312 18.928 0 173.536 0 192.416 0 7.216-43.856 45.376-77.423 91.232-77.423 8.32 0 15.056 6.736 15.056 15.056s-6.736 15.056-15.056 15.056c-29.2 0-53.76 20.176-60.512 47.312 5.216 0 157.376 0 158.736 0 22.144 0 40.128-18 40.128-40.128v-55.264h-946.080v55.28zM498.542 245.346c-15.552 5.488-26.72 20.32-26.72 37.728 0 27.888 27.855 46.944 53.488 37.6-12.784-23.68-21.776-49.087-26.768-75.328zM652.765 436.689c-11.12 26.32 8.287 55.52 36.816 55.52 20.672 0 37.76-15.776 39.776-35.952-26.352-2.528-52-9.071-76.593-19.568zM890.205 419.425c-19.632 11.92-40.624 21.184-62.448 27.536-3.296 23.696 15.393 45.248 39.632 45.248 38.88 0 54.928-50.32 22.816-72.784zM984.829 319.058c-17.088 32.208-40.56 60.255-68.992 82.608 45.439 43.52 14.464 120.656-48.448 120.656-38.080 0-69.184-30.528-70.080-68.384-12.464 2.064-25.087 3.232-37.823 3.472-2.64 36.24-32.992 64.912-69.903 64.912-50.944 0-84.864-52.944-63.824-99.008-33.584-19.072-62.368-45.232-84.448-76.72-46.208 21.6-99.6-12.368-99.6-63.52 0-32.72 22.528-60.288 52.896-67.968-1.232-17.103-0.784-35.072 1.616-53.040h-417.344c-22.144 0-40.128 18-40.128 40.128v524.767h946.080v-407.904z" />
<glyph unicode="&#xe61e;" glyph-name="down-arrow" d="M488.257 579.618c-10.352 5.568-162.224 152.913-162.417 153.088-37.408 34.817-100.832 71.584-154.961 62.624-47.344-7.84-71.377-15.088-105.44-44.752-81.569-71.072-88.736-198.176-11.040-274.849l327.633-323.249c71.84-70.896 190.56-70.928 262.385 0l133.376 131.584c37.12 36.592-19.536 93.985-56.624 57.376l-133.376-131.584c-40.848-40.288-108.304-40.288-149.168 0l-327.601 323.249c-97.472 96.192 51.68 247.345 149.152 151.2l173.793-164.288c44.576-40.593 113.921-40.608 158.513 0l173.777 164.256c98.24 96.912 244.32-57.297 149.168-151.152l-71.921-70.961c-37.072-36.624 19.536-93.985 56.608-57.393l71.936 70.961c74.352 77.056 68.001 205.376-13.313 275.121-34.048 29.2-59.921 36.704-106.512 44.432-54.416 9.023-113.424-26.513-151.696-62.737-1.729-1.648-162.065-152.641-162.352-152.929zM538.177 579.618c-14.208-12.976-35.68-12.976-49.92 0z" />
<glyph unicode="&#xe61f;" glyph-name="right-arrow" d="M380.382 424.257c-5.568-10.352-152.913-162.224-153.088-162.417-34.817-37.408-71.584-100.832-62.624-154.961 7.84-47.344 15.088-71.377 44.752-105.44 71.072-81.569 198.176-88.736 274.849-11.040l323.249 327.633c70.896 71.84 70.928 190.56 0 262.385l-131.584 133.376c-36.592 37.12-93.985-19.536-57.376-56.624l131.584-133.376c40.288-40.848 40.288-108.304 0-149.168l-323.249-327.601c-96.192-97.472-247.345 51.68-151.2 149.152l164.288 173.793c40.593 44.576 40.608 113.921 0 158.513l-164.256 173.777c-96.912 98.24 57.297 244.32 151.152 149.168l70.961-71.921c36.624-37.072 93.985 19.536 57.393 56.608l-70.961 71.936c-77.056 74.352-205.376 68.001-275.121-13.313-29.2-34.048-36.704-59.921-44.432-106.512-9.023-54.416 26.513-113.424 62.737-151.696 1.648-1.729 152.641-162.065 152.929-162.352zM380.382 474.177c12.976-14.208 12.976-35.68 0-49.92z" />
<glyph unicode="&#xe620;" glyph-name="left-arrow" d="M643.618 471.743c5.568 10.352 152.913 162.224 153.088 162.417 34.817 37.408 71.584 100.832 62.624 154.961-7.84 47.344-15.088 71.377-44.752 105.44-71.072 81.569-198.176 88.736-274.849 11.040l-323.249-327.633c-70.896-71.84-70.928-190.56 0-262.385l131.584-133.376c36.592-37.12 93.985 19.536 57.376 56.624l-131.584 133.376c-40.288 40.848-40.288 108.304 0 149.168l323.249 327.601c96.192 97.472 247.345-51.68 151.2-149.152l-164.288-173.793c-40.593-44.576-40.608-113.921 0-158.513l164.256-173.777c96.912-98.24-57.297-244.32-151.152-149.168l-70.961 71.921c-36.624 37.072-93.985-19.536-57.393-56.608l70.961-71.936c77.056-74.352 205.376-68.001 275.121 13.313 29.2 34.048 36.704 59.921 44.432 106.512 9.023 54.416-26.513 113.424-62.737 151.696-1.648 1.729-152.641 162.065-152.929 162.352zM643.618 421.823c-12.976 14.208-12.976 35.68 0 49.92z" />
<glyph unicode="&#xe621;" glyph-name="up-arrow" d="M535.743 316.382c10.352-5.568 162.224-152.913 162.417-153.088 37.408-34.817 100.832-71.584 154.961-62.624 47.344 7.84 71.377 15.088 105.44 44.752 81.569 71.072 88.736 198.176 11.040 274.849l-327.633 323.249c-71.84 70.896-190.56 70.928-262.385 0l-133.376-131.584c-37.12-36.592 19.536-93.985 56.624-57.376l133.376 131.584c40.848 40.288 108.304 40.288 149.168 0l327.601-323.249c97.472-96.192-51.68-247.345-149.152-151.2l-173.793 164.288c-44.576 40.593-113.921 40.608-158.513 0l-173.777-164.256c-98.24-96.912-244.32 57.297-149.168 151.152l71.921 70.961c37.072 36.624-19.536 93.985-56.608 57.393l-71.936-70.961c-74.352-77.056-68.001-205.376 13.313-275.121 34.048-29.2 59.921-36.704 106.512-44.432 54.416-9.023 113.424 26.513 151.696 62.737 1.729 1.648 162.065 152.641 162.352 152.929zM485.823 316.382c14.208 12.976 35.68 12.976 49.92 0z" />
<glyph unicode="&#xe622;" glyph-name="facebook" d="M651.161 737.435h93.311c19.993 0 36.249 16.256 36.249 36.249v149.94c0 19.993-16.256 36.249-36.249 36.249h-128.128c-1.228 0.051-3.379 0.128-6.349 0.128-24.191 0-108.263-4.763-174.951-66.126-72.806-66.996-65.843-147.124-62.771-166.86v-97.689h-92.749c-19.993 0-36.249-16.256-36.249-36.249v-161.254c0-19.993 16.256-36.276 36.249-36.276h87.373v-423.297c0-19.993 16.283-36.249 36.276-36.249h182.732c19.969 0 36.249 16.256 36.249 36.249v421.197h103.5c18.431 0 33.894 13.824 36.019 32.128l18.816 163.328c1.178 10.266-2.074 20.582-8.961 28.288-6.861 7.706-16.742 12.135-27.060 12.135h-122.318v81.998c0 16.948 4.633 26.111 29.004 26.111zM601.753 588.518h137.625l-17.766-154.266h-119.859c-11.263 0-20.404-9.139-20.404-20.404v-437.044h-173.646v439.142c0 11.263-9.139 20.404-20.404 20.404h-103.245v152.166h108.621c11.263 0 20.378 9.139 20.378 20.404v119.732c0 1.178-0.077 2.355-0.281 3.508-2.151 12.339-9.831 76.723 49.894 131.687 55.834 51.354 126.874 55.348 147.328 55.348 2.867 0 4.556-0.077 4.89-0.077 0.332-0.026 0.666-0.026 0.998-0.026h124.058v-140.852h-88.781c-43.699 0-69.812-25.037-69.812-66.919v-102.399c0-11.263 9.139-20.404 20.404-20.404zM448.766 272.564c-11.263 0-20.404-9.114-20.404-20.378v-10.215c0-11.263 9.139-20.404 20.404-20.404s20.404 9.139 20.404 20.404v10.215c0 11.263-9.139 20.378-20.404 20.378zM448.766 197.095c-11.263 0-20.404-9.114-20.404-20.404v-155.008c0-11.263 9.139-20.404 20.404-20.404s20.404 9.139 20.404 20.404v155.008c0 11.289-9.139 20.404-20.404 20.404z" />
<glyph unicode="&#xe623;" glyph-name="government" d="M680.431 611.776c-10.992 58.832-50.544 106.464-102.784 128.528v60.161h-51.92v18.864h78.752v84.8h-78.752v22.32h-27.472v-125.984h-51.92v-60.161c-52.24-22.048-91.792-69.696-102.768-128.528h-12.544v-28h361.952v28h-12.544zM525.743 876.111h51.264v-28.784h-51.264v28.784zM473.823 772.447h76.352v-23.2c-12.304 2.848-25.088 4.368-38.176 4.368-0.032 0-0.064 0-0.096 0 0 0-0.016 0-0.032 0-0.048 0-0.080 0-0.128 0-13.008-0.016-25.696-1.536-37.92-4.368v23.2zM434.847 611.776h-63.264c10.992 49.008 45.792 88.064 90.784 104.864-14.193-25.024-24.080-61.407-27.52-104.864zM462.415 611.776c5.936 68.64 29.377 113.745 49.392 113.839 0.032 0 0.064 0 0.096 0 20.016-0.048 43.488-45.168 49.407-113.839h-98.896zM588.879 611.776c-3.439 43.536-13.344 79.952-27.6 104.992 45.168-16.736 80.112-55.872 91.12-104.992h-63.52zM1003.295 413.279h-261.888v15.872l33.248-11.648 8.944 26.48-106.864 37.455v82.736h-27.488v-73.104l-44.768 15.68v57.439h-27.488v-47.808l-53.584 18.784v29.024h-27.472v-29.024l-51.232-17.952v46.976h-27.488v-56.607l-46.784-16.4v72.993h-27.488v-82.624l-107.184-37.568 8.944-26.48 33.232 11.648v-15.872h-277.936v-28.016h20.704v-360.416h-20.704v-28h250.528v28h-27.68v296.368h-124.736v-296.368h-49.92v360.433h178.288v-43.584h46.272v-372.144l475.265 0.464v371.68h44.848v43.584h182.944v-283.936h27.488v283.936h20.704v28h-20.704zM125.582 293.215h69.776v-34.961h-69.776v34.961zM125.582 230.255h69.776v-205.408h-69.776v205.408zM305.423 438.783l204.256 71.584 204.256-71.584v-25.504h-408.512v25.504zM328.479-1.97h-28.24v36.161h28.24v-36.161zM328.479 62.191h-28.24v214.704h28.24v-214.704zM328.479 304.911h-28.24v36.784h28.24v-36.784zM403.47-2.434h-47.504v344.128h47.504v-344.128zM459.199-1.97h-28.24v36.161h28.24v-36.161zM459.199 62.191h-28.24v214.704h28.24v-214.704zM459.199 304.911h-28.24v36.784h28.24v-36.784zM534.079-2.434h-47.392v344.128h47.392v-344.128zM589.807-1.97h-28.256v36.161h28.256v-36.161zM589.807 62.191h-28.256v214.704h28.256v-214.704zM589.807 304.911h-28.256v36.784h28.256v-36.784zM664.783-2.434h-47.488v344.128h47.488v-344.128zM719.439-1.97h-27.168v36.161h27.168v-36.161zM692.271 304.911v36.784h27.168v-36.784h-27.168zM719.439 62.191h-27.168v214.704h27.168v-214.704zM765.375 369.695h-511.408v15.584h511.408v-15.584zM1003.295 24.846v39.152h-27.488v-39.152h-52.080v296.368h-124.736v-296.368h-29.856v-28h254.864v28h-20.704zM896.239 24.846h-69.761v205.408h69.761v-205.408zM896.239 258.255h-69.761v34.961h69.761v-34.961z" />
<glyph unicode="&#xe624;" glyph-name="housing" d="M1013.095 321.039c-19.472 29.344-58.704 37.104-87.407 17.328l-130.687-89.648-0.384 279.022 45.408-43.584c9.648-9.28 22.24-14.368 35.456-14.368 0.032 0 0.048 0 0.080 0 14.272 0.016 28.047 6.144 37.792 16.816 9.472 10.368 14.448 23.887 14 38.096-0.464 14.192-6.272 27.36-16.384 37.072l-86.080 82.639c-5.887 5.664-15.136 5.344-20.655-0.688-5.519-6.048-5.216-15.52 0.671-21.184l86.063-82.639c4.416-4.24 6.96-9.984 7.168-16.176 0.192-6.207-1.984-12.112-6.112-16.639-4.32-4.72-10.192-7.328-16.512-7.344-0.016 0-0.016 0-0.032 0-5.76 0-11.264 2.239-15.472 6.272v0.016l-341.758 328.158c-5.632 5.408-14.4 5.392-20.016-0.032l-340.878-329.15c-4.4-4.24-10.16-6.464-16.208-6.303-6.048 0.192-11.664 2.784-15.807 7.296s-6.336 10.416-6.161 16.608c0.192 6.192 2.72 11.952 7.12 16.208l366.349 353.742c8.688 8.384 22.304 8.4 31.008 0.032l214.335-205.791c5.887-5.664 15.136-5.36 20.655 0.688 5.519 6.032 5.216 15.52-0.671 21.167l-214.335 205.807c-19.936 19.152-51.152 19.12-71.040-0.096l-117.279-113.247-0.032 20.208c0 6.368-2.432 12.351-6.832 16.832-4.384 4.496-10.223 6.96-16.416 6.96-0.016 0-0.016 0-0.032 0l-83.903-0.112c-6.207-0.016-12.032-2.496-16.432-7.008-4.384-4.512-6.784-10.496-6.784-16.864l0.24-145.728-118.879-114.783c-10.096-9.744-15.872-22.928-16.288-37.12-0.416-14.208 4.593-27.712 14.096-38.048 9.504-10.352 22.367-16.271 36.224-16.704 0.529-0.016 1.056-0.016 1.584-0.016 13.264 0 25.84 5.103 35.536 14.464l45.296 43.743 0.176-131.792c-14.655 2.176-29.488 3.328-44.383 3.328h-25.008v8.992c0 30.144-23.935 54.688-53.36 54.688h-46.768c-29.423 0-53.36-24.528-53.36-54.688v-234.766c0-8.272 6.544-14.976 14.624-14.976 8.064 0 14.607 6.704 14.607 14.976v234.766c0 13.632 10.832 24.719 24.128 24.719h46.768c13.312 0 24.128-11.088 24.128-24.719v-354.782c0-13.632-10.816-24.719-24.128-24.719h-46.768c-13.296 0-24.128 11.088-24.128 24.719v26.224c0 8.272-6.544 14.976-14.607 14.976-8.080 0-14.624-6.704-14.624-14.976v-26.224c0-30.16 23.935-54.688 53.36-54.688h46.768c29.423 0 53.36 24.528 53.36 54.688v2.032l214.046-83.071c0.4-0.161 0.8-0.288 1.216-0.416 9.296-2.688 18.608-4.032 27.792-4.032 4.961 0 9.888 0.384 14.784 1.184l314.559 46.48c0.064 0 0.144 0.016 0.224 0.032 26.736 4.368 51.968 15.968 72.959 33.504 0.176 0.161 0.352 0.32 0.529 0.48l203.215 187.343c23.68 21.535 28.096 57.999 10.288 84.815zM326.075 815.147l0.064-42.207-71.824-69.359-0.176 111.472 71.935 0.096zM508.282 802.7l257.070-246.847 0.448-327.166-41.392-28.384-43.808 2.512-1.168 11.935c-4.080 42.016-34.336 75.823-74.351 83.887l-0.272 194.639c-0.016 14.928-11.887 27.071-26.448 27.071-0.016 0-0.032 0-0.032 0l-139.312-0.207c-7.072 0-13.712-2.832-18.704-7.968-4.976-5.12-7.728-11.935-7.712-19.168l0.224-169.711c-27.583 6.464-53.935 17.151-78.576 31.919-3.071 1.84-6.176 3.616-9.296 5.344-1.232 0.688-2.464 1.312-3.696 1.968-1.904 1.024-3.807 2.048-5.728 3.023-1.536 0.784-3.088 1.52-4.624 2.272-1.648 0.8-3.28 1.6-4.928 2.368-1.68 0.784-3.376 1.536-5.072 2.272-1.536 0.688-3.088 1.376-4.639 2.032-1.744 0.736-3.487 1.455-5.248 2.16-1.552 0.623-3.104 1.232-4.672 1.84-1.729 0.656-3.472 1.296-5.216 1.936-1.632 0.592-3.28 1.168-4.928 1.729-1.664 0.577-3.345 1.136-5.024 1.68-1.808 0.577-3.6 1.136-5.408 1.68-1.552 0.464-3.104 0.928-4.656 1.376-2.032 0.577-4.080 1.12-6.128 1.664-0.96 0.24-1.904 0.529-2.864 0.768l-0.224 165.806 256.382 247.566zM575.834 302.383l-133.759 15.792-0.24 172.015 133.743 0.192 0.255-187.999zM983.336 258.559l-203.023-187.167c-16.912-14.048-37.2-23.36-58.72-26.896l-314.414-46.448c-0.080-0.016-0.144-0.032-0.207-0.032l-0.207-0.048c-9.535-1.536-19.455-0.88-29.488 1.936l-223.79 86.864v281.758h25.008c21.296 0 42.447-2.528 63.039-7.424 0.768-0.176 1.52-0.368 2.287-0.56 2.528-0.623 5.055-1.264 7.568-1.952 0.224-0.064 0.432-0.128 0.656-0.192 2.512-0.704 5.024-1.455 7.52-2.224 0.448-0.144 0.912-0.288 1.344-0.416 2.672-0.848 5.312-1.729 7.952-2.655 0.272-0.096 0.544-0.192 0.816-0.288 5.488-1.936 10.912-4.064 16.271-6.352 0.304-0.128 0.592-0.255 0.88-0.368 2.672-1.152 5.328-2.352 7.968-3.584 0.080-0.032 0.144-0.080 0.224-0.112 2.544-1.2 5.072-2.448 7.6-3.728 0.288-0.144 0.592-0.288 0.88-0.448 2.464-1.264 4.912-2.561 7.328-3.903 0.464-0.255 0.912-0.512 1.376-0.768 2.448-1.361 4.88-2.752 7.296-4.192 34.783-20.864 72.639-34.367 112.544-40.16 0.128-0.016 0.24-0.032 0.368-0.048l163.759-19.328c0.912-0.128 1.808-0.288 2.703-0.448 24.112-4.656 43.135-22.912 49.503-46.687 0.945-3.52 1.6-7.168 1.968-10.896l0.656-6.704-306.926 27.552c-8.032 0.72-15.119-5.377-15.824-13.616-0.72-8.239 5.232-15.504 13.28-16.223l324.478-29.136c0.080-0.016 0.161-0.016 0.224-0.016 0.080 0 0.161-0.016 0.24-0.032l61.183-3.52c0.272-0.016 0.544-0.016 0.816-0.016 0.304 0 0.577 0.048 0.864 0.064 0.336 0.016 0.656 0.032 0.976 0.080 0.448 0.048 0.864 0.144 1.296 0.24 0.304 0.080 0.608 0.128 0.912 0.224 0.464 0.128 0.928 0.32 1.376 0.496 0.24 0.112 0.496 0.176 0.736 0.304 0.688 0.32 1.344 0.688 1.984 1.12l51.936 35.632c0 0 0 0.016 0 0.016l153.407 105.231c15.439 10.624 36.512 6.448 46.96-9.312 9.568-14.4 7.2-33.984-5.584-45.616z" />
<glyph unicode="&#xe625;" d="M603.632 860.089c0-50.607-41.025-91.632-91.632-91.632s-91.632 41.025-91.632 91.632c0 50.607 41.025 91.632 91.632 91.632s91.632-41.025 91.632-91.632z" />
<glyph unicode="&#xe626;" d="M512 716.089c-86.768 0-157.088-70.336-157.088-157.088h314.176c0 86.752-70.32 157.088-157.088 157.088z" />
<glyph unicode="&#xe627;" d="M248.719 245.384c0-50.607-41.025-91.632-91.632-91.632s-91.632 41.025-91.632 91.632c0 50.607 41.025 91.632 91.632 91.632s91.632-41.025 91.632-91.632z" />
<glyph unicode="&#xe628;" d="M157.088 101.384c-86.752 0-157.088-70.336-157.088-157.104h314.193c0 86.768-70.336 157.104-157.104 157.104z" />
<glyph unicode="&#xe629;" d="M958.528 245.384c0-50.607-41.025-91.632-91.632-91.632s-91.632 41.025-91.632 91.632c0 50.607 41.025 91.632 91.632 91.632s91.632-41.025 91.632-91.632z" />
<glyph unicode="&#xe62a;" d="M866.912 101.384c-86.768 0-157.104-70.336-157.104-157.104h314.193c0 86.768-70.336 157.104-157.088 157.104z" />
<glyph unicode="&#xe62b;" d="M674.752 203.624l-136.576 78.848v157.681c0 14.464-11.712 26.193-26.176 26.193s-26.176-11.728-26.176-26.193v-157.681l-136.56-78.848c-12.529-7.232-16.816-23.248-9.584-35.776 7.232-12.512 23.248-16.8 35.76-9.568l136.56 78.832 136.56-78.832c4.129-2.384 8.624-3.52 13.072-3.52 9.040 0 17.856 4.688 22.704 13.088 7.216 12.529 2.929 28.545-9.584 35.776z" />
<glyph unicode="&#xe62c;" glyph-name="instagram" d="M723.995 959.999h-423.988c-165.428 0-300.006-134.58-300.006-300.006v-423.988c0-165.428 134.58-300.006 300.006-300.006h423.988c165.428 0 300.006 134.58 300.006 300.006v423.988c0 165.428-134.58 300.006-300.006 300.006zM984.015 236.005c0-143.361-116.659-259.993-260.020-259.993h-423.988c-143.361 0-259.993 116.634-259.993 259.993v423.988c0 143.361 116.634 260.020 259.993 260.020h423.988c143.361 0 260.020-116.659 260.020-260.020v-423.988zM723.995 872.011h-423.988c-116.916 0-211.993-95.104-211.993-212.019v-423.988c0-116.916 95.078-211.993 211.993-211.993h121.984c11.059 0 20.019 8.934 20.019 19.993 0 11.034-8.961 19.993-20.019 19.993h-121.984c-94.849 0-172.007 77.158-172.007 172.007v423.988c0 94.849 77.158 172.007 172.007 172.007h423.988c94.849 0 172.007-77.158 172.007-172.007v-423.988c0-94.849-77.158-172.007-172.007-172.007h-120.653c-11.059 0-20.019-8.961-20.019-19.993 0-11.059 8.961-19.993 20.019-19.993h120.653c116.916 0 212.019 95.078 212.019 211.993v423.988c0 116.916-95.104 212.019-212.019 212.019zM526.134 58.135c-3.713 3.713-8.884 5.863-14.132 5.863s-10.419-2.151-14.132-5.863c-3.737-3.713-5.863-8.884-5.863-14.132 0-5.274 2.124-10.419 5.863-14.156 3.713-3.713 8.884-5.837 14.132-5.837s10.419 2.124 14.132 5.837c3.737 3.737 5.863 8.884 5.863 14.156 0 5.248-2.124 10.419-5.863 14.132zM351.669 648.574c-7.553 8.064-20.224 8.473-28.288 0.923l-0.87-0.819c-8.038-7.577-8.396-20.25-0.819-28.288 3.917-4.172 9.242-6.272 14.541-6.272 4.914 0 9.857 1.817 13.721 5.453l0.793 0.743c8.064 7.553 8.473 20.198 0.923 28.262zM512.002 723.993c-43.929 0-87.654-10.573-126.439-30.593-9.804-5.068-13.671-17.126-8.603-26.957 5.068-9.804 17.153-13.644 26.957-8.603 33.613 17.357 69.966 26.164 108.083 26.164 130.125 0 236.006-105.881 236.006-236.006s-105.881-236.006-236.006-236.006c-130.125 0-236.006 105.881-236.006 236.006 0 40.832 10.598 81.075 30.643 116.351 5.453 9.6 2.074 21.812-7.526 27.264s-21.812 2.1-27.264-7.5c-23.449-41.293-35.841-88.371-35.841-136.116 0-152.192 123.803-275.995 275.995-275.995s275.995 123.803 275.995 275.995c0 152.192-123.803 275.995-275.995 275.995zM512.002 627.993c-99.251 0-179.994-80.743-179.994-179.994s80.743-179.994 179.994-179.994c99.251 0 179.994 80.743 179.994 179.994s-80.743 179.994-179.994 179.994zM512.002 307.992c-77.184 0-140.006 62.822-140.006 140.006s62.822 140.006 140.006 140.006c77.184 0 140.006-62.822 140.006-140.006s-62.822-140.006-140.006-140.006zM774.504 786.507c-41.908 0-76.007-34.099-76.007-76.007s34.099-76.007 76.007-76.007c41.908 0 76.007 34.099 76.007 76.007s-34.099 76.007-76.007 76.007zM774.504 674.508c-19.839 0-35.994 16.153-35.994 35.994s16.153 35.994 35.994 35.994c19.839 0 35.994-16.153 35.994-35.994s-16.153-35.994-35.994-35.994z" />
<glyph unicode="&#xe62d;" glyph-name="mail" d="M1003.598 779.085h-983.194c-11.263 0-20.404-9.114-20.404-20.404v-537.447c0-57.523 46.796-104.319 104.319-104.319h815.361c57.523 0 104.319 46.796 104.319 104.319v537.447c0 11.289-9.139 20.404-20.404 20.404zM983.194 221.235c0-35.021-28.493-63.54-63.514-63.54h-815.361c-35.021 0-63.514 28.519-63.514 63.54v492.955l458.265-375.169c3.763-3.071 8.346-4.609 12.928-4.609s9.139 1.536 12.902 4.609l354.611 289.639c8.73 7.142 10.009 19.993 2.893 28.697-7.118 8.73-19.969 10.035-28.697 2.893l-341.683-279.092-436.275 357.146h907.444v-517.069zM939.854 704.282c-7.142 8.73-19.993 10.035-28.697 2.893l-6.118-4.991c-8.73-7.142-10.035-19.969-2.918-28.697 4.044-4.941 9.908-7.5 15.821-7.5 4.532 0 9.114 1.511 12.878 4.609l6.144 4.991c8.704 7.118 10.009 19.969 2.893 28.697z" />
<glyph unicode="&#xe62e;" glyph-name="menu" d="M908.368 668.048h-792.735c-63.761 0-115.632 51.872-115.632 115.616 0 63.761 51.872 115.632 115.632 115.632h792.735c63.761 0 115.632-51.872 115.632-115.632 0-63.744-51.872-115.616-115.632-115.616zM115.632 858.496c-41.264 0-74.832-33.568-74.832-74.832 0-41.248 33.568-74.816 74.832-74.816h792.735c41.264 0 74.832 33.568 74.832 74.816 0 41.264-33.568 74.832-74.832 74.832h-792.735zM908.368 332.368h-792.735c-63.761 0-115.632 51.872-115.632 115.632s51.872 115.632 115.632 115.632h792.735c63.761 0 115.632-51.872 115.632-115.632s-51.872-115.632-115.632-115.632zM115.632 522.832c-41.264 0-74.832-33.568-74.832-74.832s33.568-74.832 74.832-74.832h792.735c41.264 0 74.832 33.568 74.832 74.832s-33.568 74.832-74.832 74.832h-792.735zM908.368-3.296h-792.735c-63.761 0-115.632 51.872-115.632 115.632 0 63.744 51.872 115.616 115.632 115.616h792.735c63.761 0 115.632-51.872 115.632-115.616 0-63.761-51.872-115.632-115.632-115.632zM115.632 187.153c-41.264 0-74.832-33.568-74.832-74.816 0-41.264 33.568-74.832 74.832-74.832h792.735c41.264 0 74.832 33.568 74.832 74.832 0 41.248-33.568 74.816-74.832 74.816h-792.735zM470.336 782.319h-352.336c-11.264 0-20.4 9.136-20.4 20.4s9.136 20.4 20.4 20.4h352.336c11.264 0 20.4-9.136 20.4-20.4s-9.136-20.4-20.4-20.4zM606.032 782.319h-40.464c-11.264 0-20.4 9.136-20.4 20.4s9.136 20.4 20.4 20.4h40.464c11.264 0 20.4-9.136 20.4-20.4s-9.136-20.4-20.4-20.4z" />
<glyph unicode="&#xe62f;" glyph-name="police-contacts" d="M348.144 922.369h-83.936c-7.072 0-12.8-5.568-12.8-12.464s5.728-12.464 12.8-12.464h83.936c7.088 0 12.8 5.568 12.8 12.464s-5.712 12.464-12.8 12.464zM306.177 118.206c-25.408 0-46.096-20.16-46.096-44.929s20.672-44.929 46.096-44.929c25.424 0 46.096 20.16 46.096 44.929s-20.688 44.929-46.096 44.929zM306.177 53.263c-11.296 0-20.496 8.977-20.496 20 0 11.040 9.2 20 20.496 20s20.496-8.977 20.496-20c0-11.024-9.2-20-20.496-20zM1022.099 645.008c-0.272 4.432-0.48 7.44-0.448 8.816 0.080 3.36-1.232 6.608-3.632 9.008s-5.712 3.761-9.168 3.761c-139.984 0-143.265 95.329-143.329 99.345-0.064 6.864-5.776 12.368-12.8 12.368h-240.369v101.472c0 36.816-30.72 66.768-68.48 66.768h-475.394c-37.76 0-68.48-29.952-68.48-66.768v-863.539c0-36.832 30.704-66.784 68.48-66.784h475.394c37.76 0 68.496 29.952 68.496 66.768v26.288c19.792-12.464 40.832-24.256 63.521-35.088 1.777-0.832 3.713-1.28 5.632-1.28s3.872 0.432 5.632 1.28c135.745 64.817 359.761 233.84 334.945 637.586zM543.873-25.617h-475.394c-23.649 0-42.88 18.768-42.88 41.84v863.555c0 23.056 19.232 41.84 42.88 41.84h475.394c23.649 0 42.88-18.784 42.88-41.84v-101.488h-34.56v42.56c0 6.88-5.712 12.464-12.8 12.464h-466.417c-7.072 0-12.8-5.584-12.8-12.464v-702.339c0-6.897 5.728-12.464 12.8-12.464h452.065c1.232 0 2.368 0.352 3.488 0.688 17.776-16.512 37.104-32.304 58.208-47.185v-43.328h0.016c0-23.088-19.248-41.84-42.88-41.84zM338.849 645.2c-6.32-109.393 2.64-342.898 165.057-514.225h-418.13v677.41h440.801v-30.096h-18.368c-6.993 0-12.672-5.504-12.8-12.304-0.080-4.064-3.36-99.408-143.344-99.408-3.456 0-6.752-1.344-9.168-3.761-2.4-2.384-3.728-5.648-3.632-9.008 0.032-1.361-0.161-4.288-0.416-8.607zM681.505 32.543c-130.432 64.016-338.577 226.88-317.201 609.346 123.665 4.72 149.76 81.057 155.248 111.473h321.808c5.488-30.416 31.584-106.752 155.296-111.473 22.88-382.594-184.832-545.378-315.153-609.346z" />
<glyph unicode="&#xe630;" glyph-name="police-reports" d="M670.4 305.217c-15.536 36.48 16.864 85.455 17.2 85.936 3.664 5.488 2.592 12.864-2.496 17.055l-36.864 30.224c-3.616 2.944-8.544 3.728-12.848 2-72.768-28.88-111.728 18.255-113.344 20.272-4.864 6.144-15.264 6.128-20.096-0.048-0.384-0.496-39.84-49.376-113.312-20.224-4.32 1.712-9.232 0.945-12.832-2l-36.88-30.224c-5.104-4.208-6.192-11.584-2.48-17.072 9.168-13.568 30.144-55.488 17.216-85.919-14.208-33.393-47.456-111.6 10.832-188.208 31.28-41.152 69.264-50.816 96.993-57.872 21.152-5.392 33.424-8.944 39.52-19.232 2.304-3.904 6.496-6.288 11.024-6.288s8.72 2.384 11.024 6.288c6.096 10.304 18.368 13.856 39.52 19.232 27.728 7.072 65.712 16.736 96.993 57.872 58.256 76.608 25.039 154.816 10.832 188.208zM639.168 132.513c-25.888-34.032-56.193-41.745-82.944-48.56-16.496-4.192-32.32-8.224-44.224-18.096-11.904 9.872-27.712 13.888-44.224 18.096-26.736 6.816-57.040 14.528-82.928 48.56-43.424 57.088-28.24 114.288-7.648 162.688 16.064 37.808-2.992 80.96-13.552 100.192l22.672 18.577c63.92-22.208 107.2 4.912 125.664 20.848 18.448-15.936 61.696-43.087 125.664-20.848l22.672-18.577c-10.545-19.232-29.6-62.384-13.536-100.192 20.607-48.416 35.793-105.6-7.616-162.688zM615.536 284.192c-1.536 4.672-5.632 8.064-10.496 8.72l-56.784 7.536-24.704 51.664c-2.145 4.448-6.623 7.28-11.552 7.28s-9.408-2.832-11.536-7.28l-24.704-51.664-56.768-7.536c-4.88-0.656-8.96-4.048-10.48-8.72-1.536-4.687-0.224-9.855 3.345-13.248l41.488-39.456-10.368-56.304c-0.896-4.848 1.072-9.776 5.072-12.671 3.984-2.896 9.296-3.248 13.616-0.896l50.352 27.264 50.368-27.264c1.904-1.039 4-1.552 6.080-1.552 2.655 0 5.312 0.816 7.536 2.448 3.984 2.896 5.952 7.808 5.072 12.671l-10.368 56.304 41.471 39.456c3.568 3.408 4.88 8.544 3.36 13.248zM548.016 245.28c-3.136-2.992-4.545-7.344-3.761-11.6l6.784-36.816-32.928 17.824c-1.888 1.039-4 1.552-6.096 1.552s-4.192-0.512-6.096-1.552l-32.912-17.824 6.784 36.816c0.784 4.256-0.623 8.607-3.761 11.6l-27.136 25.792 37.12 4.928c4.271 0.56 8 3.264 9.872 7.168l16.144 33.761 16.16-33.761c1.856-3.92 5.568-6.608 9.872-7.168l37.104-4.928-27.152-25.792zM894.927 960h-765.855c-7.072 0-12.8-5.728-12.8-12.8v-998.399c0-7.072 5.728-12.8 12.8-12.8h765.855c7.072 0 12.8 5.728 12.8 12.8v998.399c0 7.072-5.728 12.8-12.8 12.8zM882.128-38.399h-740.255v972.8h740.255v-972.8zM754.864 812.367h-485.711c-7.072 0-12.8-5.745-12.8-12.8 0-7.072 5.728-12.8 12.8-12.8h485.728c7.056 0 12.8 5.728 12.8 12.8 0 7.056-5.745 12.8-12.816 12.8zM754.864 699.168h-485.711c-7.072 0-12.8-5.728-12.8-12.8 0-7.056 5.728-12.8 12.8-12.8h485.728c7.056 0 12.8 5.745 12.8 12.8-0.016 7.072-5.745 12.8-12.816 12.8zM754.864 585.983h-485.711c-7.072 0-12.8-5.728-12.8-12.8 0-7.056 5.728-12.8 12.8-12.8h485.728c7.056 0 12.8 5.745 12.8 12.8 0 7.072-5.745 12.8-12.816 12.8z" />
<glyph unicode="&#xe631;" d="M776.832 483.312h-229.68l0.161 123.568-35.312 0.032-0.144-123.6h-229.376c-29.2 0-52.961-23.76-52.961-52.961v-123.6h35.312v123.6c0 9.728 7.904 17.648 17.648 17.648h494.352c9.728 0 17.648-7.92 17.648-17.648v-123.6h35.312v123.6c0 29.2-23.76 52.961-52.961 52.961z" />
<glyph unicode="&#xe632;" d="M547.312 606.896h-35.312v-49.728c5.552-1.968 11.44-3.232 17.648-3.232 6.224 0 12.112 1.264 17.664 3.232v49.728z" />
<glyph unicode="&#xe633;" d="M229.52 359.729h35.312v-52.961h-35.312v52.961z" />
<glyph unicode="&#xe634;" d="M794.48 359.729h35.312v-52.961h-35.312v52.961z" />
<glyph unicode="&#xe635;" d="M918.064 324.416h-211.856c-9.744 0-17.664-7.904-17.664-17.664v-353.103c0-9.744 7.92-17.648 17.664-17.648h194.208c19.504 0 35.312 15.807 35.312 35.312v335.44c0 9.761-7.904 17.664-17.664 17.664z" />
<glyph unicode="&#xe636;" d="M900.415-64h-70.624v229.52c0 29.248 23.712 52.961 52.961 52.961h52.976v-247.168c0-19.504-15.807-35.312-35.312-35.312z" />
<glyph unicode="&#xe637;" d="M909.248-11.040h-194.208c-4.88 0-8.832 3.952-8.832 8.832v264.832c0 4.88 3.952 8.832 8.832 8.832h194.208c4.864 0 8.816-3.952 8.816-8.832v-264.832c0-4.88-3.952-8.832-8.816-8.832z" />
<glyph unicode="&#xe638;" d="M882.752 218.48c-29.248 0-52.961-23.712-52.961-52.961v-176.56h79.44c4.88 0 8.832 3.952 8.832 8.832v220.687h-35.312z" />
<glyph unicode="&#xe639;" d="M882.752-64h105.936c9.744 0 17.664 7.904 17.664 17.664v211.856c0 9.744-7.92 17.648-17.664 17.648h-105.936c-9.744 0-17.648-7.904-17.648-17.648v-211.856c0-9.761 7.904-17.664 17.648-17.664z" />
<glyph unicode="&#xe63a;" d="M618.687 960c-50.624 0-74.784-11.28-84.112-17.329-3.008-1.952-6.671-1.952-9.68 0-9.312 6.048-33.487 17.329-84.112 17.329-54.608 0-117.104-12.064-144.288-17.936-8.112-1.744-13.84-8.929-13.84-17.232v-306.863c0-5.632 5.12-9.84 10.624-8.64 25.168 5.552 90.623 18.64 147.504 18.64 25.584 0 44.384-2.88 57.936-6.512 7.823-2.096 13.28-6.416 13.28-14.512v-0.048c0-9.761 7.888-17.648 17.648-17.648s17.664 7.888 17.664 17.648c0 8.080 5.44 12.4 13.248 14.496 13.568 3.664 32.416 6.577 58.128 6.577 56.88 0 122.335-13.087 147.52-18.64 5.504-1.2 10.624 3.008 10.624 8.64v306.863c0 8.304-5.728 15.487-13.84 17.232-27.184 5.872-89.696 17.936-144.303 17.936z" />
<glyph unicode="&#xe63b;" d="M706.224 846.56c-0.88 0-1.76 0.064-2.655 0.176-57.439 8.688-102.896 9.855-134.528 2.368-9.472-2.287-19.024 3.616-21.248 13.104-2.256 9.487 3.632 19.008 13.104 21.248 36.368 8.592 85.6 7.616 147.951-1.777 9.632-1.472 16.271-10.464 14.832-20.112-1.328-8.736-8.864-15.008-17.456-15.008z" />
<glyph unicode="&#xe63c;" d="M706.224 705.312c-0.88 0-1.76 0.064-2.655 0.192-57.439 8.672-102.896 9.84-134.528 2.352-9.472-2.239-19.024 3.632-21.248 13.104-2.256 9.487 3.632 19.008 13.104 21.248 36.368 8.624 85.6 7.616 147.951-1.777 9.632-1.472 16.271-10.464 14.832-20.096-1.328-8.752-8.864-15.023-17.456-15.023z" />
<glyph unicode="&#xe63d;" d="M564.944 778c-8 0-15.232 5.471-17.168 13.6-2.224 9.487 3.632 19.008 13.136 21.248 5.696 1.328 12.112 2.544 19.328 3.536 9.744 1.248 18.577-5.488 19.888-15.12 1.296-9.68-5.471-18.577-15.12-19.888-5.984-0.8-11.296-1.792-15.984-2.912-1.361-0.304-2.736-0.464-4.080-0.464z" />
<glyph unicode="&#xe63e;" d="M706.224 775.936c-0.88 0-1.76 0.064-2.655 0.192-18.416 2.784-35.776 4.784-51.632 5.984-9.728 0.72-17.024 9.184-16.304 18.912 0.736 9.712 9.28 17.024 18.928 16.288 16.736-1.248 34.992-3.36 54.288-6.255 9.632-1.472 16.271-10.464 14.832-20.096-1.328-8.752-8.864-15.023-17.456-15.023z" />
<glyph unicode="&#xe63f;" d="M353.088 846.56c-8.592 0-16.129 6.272-17.456 15.008-1.44 9.648 5.2 18.64 14.832 20.112 62.352 9.376 111.6 10.368 147.951 1.777 9.487-2.256 15.36-11.76 13.104-21.248-2.239-9.487-11.793-15.393-21.248-13.104-31.632 7.488-77.072 6.304-134.528-2.368-0.896-0.112-1.777-0.176-2.655-0.176z" />
<glyph unicode="&#xe640;" d="M353.088 705.312c-8.592 0-16.129 6.272-17.456 15.023-1.44 9.632 5.2 18.623 14.832 20.096 62.352 9.376 111.6 10.384 147.951 1.777 9.487-2.239 15.36-11.76 13.104-21.248-2.239-9.472-11.793-15.345-21.248-13.104-31.632 7.488-77.072 6.32-134.528-2.352-0.896-0.128-1.777-0.192-2.655-0.192z" />
<glyph unicode="&#xe641;" d="M494.368 778c-1.344 0-2.72 0.161-4.080 0.464-4.687 1.12-10 2.112-15.984 2.912-9.648 1.312-16.416 10.208-15.12 19.888 1.328 9.632 10.177 16.352 19.888 15.12 7.216-0.976 13.632-2.208 19.328-3.536 9.487-2.239 15.36-11.76 13.136-21.248-1.936-8.112-9.168-13.6-17.168-13.6z" />
<glyph unicode="&#xe642;" d="M353.088 775.936c-8.592 0-16.129 6.272-17.456 15.008-1.44 9.648 5.2 18.64 14.832 20.112 19.296 2.896 37.552 5.007 54.288 6.255 9.984 0.912 18.192-6.577 18.928-16.288 0.72-9.728-6.577-18.192-16.304-18.928-15.855-1.184-33.216-3.184-51.632-5.968-0.896-0.128-1.777-0.192-2.655-0.192z" />
<glyph unicode="&#xe643;" d="M194.208 24.273h105.936v-70.624h-105.936v70.624z" />
<glyph unicode="&#xe644;" d="M441.376 6.624h-388.415c-19.488 0-35.296 15.807-35.296 35.312v247.168c0 19.504 15.807 35.312 35.296 35.312h388.415c19.504 0 35.312-15.807 35.312-35.312v-247.168c0-19.504-15.807-35.312-35.312-35.312z" />
<glyph unicode="&#xe645;" d="M317.792-64h-141.248c-9.744 0-17.648 7.904-17.648 17.664 0 9.744 7.888 17.648 17.648 17.648h141.248c9.761 0 17.664-7.904 17.664-17.648-0.016-9.761-7.904-17.664-17.664-17.664z" />
<glyph unicode="&#xe646;" d="M441.376 6.624h-388.415c-19.488 0-35.296 15.807-35.296 35.312v17.648h459.023v-17.648c0-19.504-15.807-35.312-35.312-35.312z" />
<glyph unicode="&#xe647;" d="M432.56 94.897h-370.768c-4.88 0-8.832 3.952-8.832 8.832v176.544c0 4.88 3.952 8.832 8.832 8.832h370.752c4.88 0 8.832-3.952 8.832-8.832v-176.544c0-4.88-3.952-8.832-8.832-8.832z" />
<glyph unicode="&#xe648;" d="M979.856-28.688h-88.271c-4.88 0-8.832 3.952-8.832 8.832v158.896c0 4.864 3.952 8.816 8.832 8.816h88.271c4.88 0 8.832-3.952 8.832-8.816v-158.896c0-4.88-3.952-8.832-8.832-8.832z" />
<glyph unicode="&#xe649;" glyph-name="pro-icon" d="M752.143 627.615c-10.223 84.671-47.567 161.36-108.016 221.807-147.439 147.439-387.327 147.439-534.766 0-60.416-60.416-97.76-137.103-108-221.727-0.993-8.208 4.848-15.664 13.056-16.656 8.193-0.993 15.664 4.848 16.656 13.056 9.424 77.92 43.808 148.528 99.456 204.16 135.76 135.76 356.671 135.76 492.431 0 55.664-55.664 90.048-126.271 99.472-204.223 0.912-7.6 7.376-13.184 14.832-13.184 0.608 0 1.2 0.048 1.823 0.112 8.193 0.993 14.048 8.448 13.056 16.656zM598.032 803.311c-122.015 122.015-320.559 122.015-442.575 0s-122.015-320.543 0-442.558c61.008-61.008 141.152-91.52 221.295-91.52 80.128 0 160.271 30.512 221.28 91.52 122.015 122.015 122.015 320.543 0 442.558zM576.864 381.921c-110.335-110.352-289.887-110.352-400.239 0-53.456 53.456-82.879 124.511-82.879 200.111s29.423 146.671 82.879 200.127c55.183 55.168 127.647 82.752 200.127 82.752 72.464 0 144.944-27.6 200.111-82.752 53.456-53.456 82.896-124.528 82.896-200.127 0-75.583-29.44-146.655-82.896-200.111zM1009.183 62.625l-235.375 235.375c-14.448 14.448-36.112 17.312-53.471 8.688l-44.224 44.224c40.336 51.999 66.112 113.151 75.215 179.247 1.136 8.193-4.593 15.744-12.784 16.864-8.16 1.12-15.728-4.593-16.864-12.784-8.944-64.879-35.328-124.592-76.831-174.447-0.112-0.112-0.224-0.224-0.336-0.352-5.184-6.224-10.56-12.24-16.032-17.984 0 0 0 0-0.016 0-1.808-1.92-3.648-3.792-5.488-5.648-1.952-1.952-3.936-3.855-5.92-5.76-1.296-1.232-2.607-2.448-3.936-3.664-0.64-0.592-1.264-1.2-1.904-1.777-1.664-1.52-3.36-3.008-5.055-4.496-0.304-0.272-0.608-0.544-0.912-0.816-1.76-1.52-3.536-3.040-5.328-4.528-136.655-114.288-341.054-107.28-469.391 21.040-54.255 54.255-88.415 123.008-98.768 198.831-1.12 8.193-8.672 13.904-16.864 12.8-8.176-1.12-13.919-8.672-12.8-16.864 11.248-82.336 48.336-157.007 107.264-215.935 73.712-73.712 170.544-110.575 267.392-110.575 81.648 0 163.296 26.208 231.087 78.623l44.239-44.224c-3.168-6.352-4.896-13.376-4.896-20.672 0-12.4 4.832-24.048 13.6-32.816l235.375-235.391c8.768-8.752 20.416-13.584 32.816-13.584 12.384 0 24.048 4.832 32.8 13.584l47.408 47.408c0 0 0 0 0 0 18.096 18.096 18.096 47.536 0 65.632zM630.864 302.016c2.256 2.048 4.512 4.144 6.736 6.255 0.304 0.304 0.608 0.608 0.912 0.896 1.888 1.808 3.761 3.616 5.616 5.471 2.145 2.145 4.24 4.304 6.32 6.48 0.048 0.064 0.112 0.128 0.161 0.192 2.096 2.176 4.144 4.384 6.161 6.608l40.672-40.656-25.919-25.919-40.656 40.672zM988.014 18.161l-47.392-47.408c-3.12-3.104-7.248-4.816-11.648-4.816s-8.528 1.712-11.648 4.832l-235.375 235.375c-6.432 6.416-6.432 16.864 0 23.296l47.392 47.392c3.216 3.216 7.44 4.816 11.648 4.816 4.223 0 8.432-1.6 11.648-4.816l235.375-235.375c6.432-6.432 6.432-16.88 0-23.296zM623.807 628.031l-215.199 202.159c-14.128 13.28-36.288 13.28-50.416 0l-215.199-202.159c-14.8-13.888-15.535-37.248-1.632-52.047 6.736-7.168 15.872-11.28 25.696-11.6 0.4 0 0.784-0.016 1.184-0.016 9.393 0 18.303 3.52 25.184 9.984l15.824 14.88v-184.080c0-14.256 11.6-25.856 25.84-25.856h296.606c14.256 0 25.84 11.6 25.84 25.856v184.080l15.84-14.88c6.864-6.432 15.807-9.984 25.216-9.984 10.128 0 19.904 4.24 26.832 11.616 13.904 14.8 13.184 38.144-1.616 52.047zM416.241 409.232h-65.68v170.399h65.68v-170.399zM527.616 409.232h-81.456v178.415c0 12.080-9.824 21.92-21.903 21.92h-81.712c-12.080 0-21.92-9.84-21.92-21.92v-178.415h-81.439v208.111l144.207 135.472 144.223-135.472v-208.111zM603.616 596.48c-1.777-1.888-3.92-2.176-5.040-2.176-1.232 0-3.056 0.336-4.704 1.871l-200.224 188.096c-5.76 5.408-14.736 5.408-20.496 0l-200.224-188.096c-1.808-1.712-3.872-1.888-4.928-1.871-1.072 0.048-3.12 0.368-4.816 2.176s-1.904 3.872-1.871 4.928c0.032 1.072 0.368 3.12 2.176 4.816l215.184 202.143c1.328 1.248 3.023 1.871 4.72 1.871 1.712 0 3.408-0.623 4.72-1.871l215.199-202.143c1.808-1.696 2.128-3.744 2.16-4.816 0.048-1.056-0.161-3.12-1.856-4.928z" />
<glyph unicode="&#xe64a;" d="M88.001 196h231.999v-240h-231.999v240z" />
<glyph unicode="&#xe64b;" d="M396.256 324h231.999v-368h-231.999v368z" />
<glyph unicode="&#xe64c;" d="M704 452h231.999v-495.999h-231.999v495.999z" />
<glyph unicode="&#xe64d;" d="M336.528 445.52c-61.792 60.623-48.096 174.336-48.016 175.264l-0.016 0.016c0.48 0.032 109.967 10.816 171.888-49.936 61.888-60.736 50.736-172.128 50.655-172.608l0.032-0.032c0 0-112.512-13.6-174.544 47.296z" />
<glyph unicode="&#xe64e;" d="M575.248 502.080l0.016 0.016c-0.048 0.368-8.287 82.593 37.407 127.424 45.712 44.848 126.528 36.896 126.88 36.864v0l-0.016-0.016c0.064-0.688 10.177-84.623-35.44-129.376-45.792-44.96-128.848-34.912-128.848-34.912z" />
<glyph unicode="&#xe64f;" d="M648 804c0-75.11-60.889-136-136-136s-136 60.889-136 136c0 75.11 60.889 136 136 136s136-60.889 136-136z" />
<glyph unicode="&#xe650;" d="M1004-23.999h-48v132c0 11.040-8.96 20-20 20s-20-8.96-20-20v-132h-192v456h192v-138.048c0-11.040 8.96-20 20-20s20 8.96 20 20v158.048c0 11.040-8.96 20-20 20h-231.999c-11.040 0-20-8.96-20-20v-476h-35.745v348c0 11.040-8.96 20-20 20h-96.255v91.344c2.496 0.976 4.832 2.464 6.848 4.48l41.744 41.728c3.807-0.24 8.832-0.448 14.816-0.448 30.752 0 86 5.584 122.703 41.6 49.104 48.192 42.768 131.6 41.408 144.912-0.288 4.687-2.224 9.312-5.824 12.912-3.536 3.536-8.064 5.471-12.704 5.793-11.136 1.008-92.416 6.448-142.336-42.528-40.912-40.144-44.48-103.728-43.871-131.471l-22.784-22.784v154.464c0 1.808-0.255 3.568-0.72 5.232 76.96 9.536 136.72 75.28 136.72 154.768 0 86.016-69.984 156-156 156s-156-69.984-156-156c0-79.488 59.776-145.232 136.72-154.768-0.448-1.664-0.72-3.424-0.72-5.232v-79.488c-5.184 7.248-11.024 14.176-17.616 20.64-65.377 64.128-175.616 56.592-186.944 55.632-4.992-0.272-9.888-2.4-13.568-6.336-3.28-3.504-5.040-7.888-5.329-12.336-1.68-15.936-10.784-127.328 53.968-190.88v0c47.92-47.024 120.432-54.352 160.976-54.352 3.023 0 5.856 0.048 8.512 0.112v-32.992h-95.744c-11.040 0-20-8.96-20-20v-348h-36.255v219.999c0 11.040-8.96 20-20 20h-231.999c-11.040 0-20-8.96-20-20v-219.999h-48c-11.040 0-20-8.96-20-20s8.96-20 20-20h983.999c11.040 0 20 8.96 20 20s-8.96 20-20 20zM626.671 615.248c26.816 26.304 70 31.12 93.855 31.616 0.161-24.512-3.6-69.248-30.432-95.6-18.592-18.24-45.472-25.664-68.304-28.512l23.488 23.504c7.808 7.808 7.808 20.464 0 28.288-7.808 7.808-20.464 7.808-28.288 0l-18.928-18.945c3.904 20.672 12.048 43.407 28.608 59.648zM396 804c0 63.968 52.032 116 116 116s116-52.032 116-116c0-63.968-52.032-116-116-116s-116 52.032-116 116zM350.529 459.793c-40.912 40.16-44.128 109.664-43.2 141.712 31.248 0.080 98.16-4.8 139.056-44.912 30.768-30.192 41.103-75.584 44.256-109.648l-44.576 44.576c-7.823 7.808-20.48 7.808-28.288 0s-7.808-20.464 0-28.288l45.664-45.648c-34.656 2.287-81.648 11.536-112.912 42.207 0.016 0 0.016 0 0 0zM108-23.999v200h192v-200h-192zM496-23.999v121.952c0 11.040-8.96 20-20 20s-20-8.96-20-20v-121.952h-39.744v327.999h192v-327.999h-112.256z" />
<glyph unicode="&#xe651;" d="M935.999 220c-5.264 0-10.416-2.145-14.145-5.856-3.712-3.728-5.856-8.88-5.856-14.145s2.145-10.416 5.856-14.145c3.728-3.712 8.88-5.856 14.145-5.856s10.416 2.145 14.145 5.856c3.712 3.728 5.856 8.88 5.856 14.145s-2.145 10.416-5.856 14.145c-3.728 3.712-8.88 5.856-14.145 5.856z" />
<glyph unicode="&#xe652;" d="M512 696.479c10.368 0 18.896 7.904 19.904 18 23.568 7.744 40.528 28.8 40.528 53.536 0 31.248-27.104 56.688-60.432 56.688-11.264 0-20.432 7.488-20.432 16.687 0 9.216 9.168 16.704 20.432 16.704s20.432-7.488 20.432-16.704c0-11.040 8.96-20 20-20s20 8.96 20 20c0 24.72-16.944 45.776-40.512 53.519-0.8 10.32-9.393 18.448-19.92 18.448-10.512 0-19.12-8.128-19.92-18.448-23.568-7.744-40.512-28.8-40.512-53.519 0-31.248 27.104-56.688 60.432-56.688 11.264 0 20.432-7.488 20.432-16.687 0-9.216-9.168-16.704-20.432-16.704s-20.432 7.488-20.432 16.704c0 11.040-8.96 20-20 20s-20-8.96-20-20c0-24.736 16.961-45.792 40.528-53.536 1.008-10.096 9.536-18 19.904-18z" />
<glyph unicode="&#xe653;" d="M476 196.72c-5.264 0-10.416-2.145-14.145-5.856-3.712-3.728-5.856-8.88-5.856-14.145s2.145-10.416 5.856-14.145c3.728-3.712 8.88-5.856 14.145-5.856s10.416 2.145 14.145 5.856c3.712 3.728 5.856 8.88 5.856 14.145s-2.145 10.416-5.856 14.145c-3.728 3.712-8.88 5.856-14.145 5.856z" />
<glyph unicode="&#xe654;" glyph-name="search" d="M181.489 598.528c-11.040 0-20-8.944-20-19.984s8.96-20 20-20c11.040 0 20 8.96 20 20s-8.96 19.984-20 19.984zM741.839 359.568c-3.744 3.744-8.832 5.856-14.144 5.856-0.192-0.032-7.888 0.384-14.128-5.856l-14.144-14.144-45.951 45.951c101.408 142.143 85.984 338.238-38.896 463.118-140.671 140.671-368.367 140.688-509.053 0-140.671-140.671-140.703-368.382 0-509.069 124.559-124.576 320.574-140.56 463.102-38.896l45.951-45.951-14.144-14.144c-7.792-7.792-7.808-20.464 0-28.288l252.847-252.814c39.071-39.088 102.319-39.119 141.392 0 39.088 39.056 39.104 102.303 0 141.375l-252.831 252.862zM642.847 288.848l-42.815 42.832c4.976 4.448 9.84 9.040 14.544 13.744 4.72 4.704 9.296 9.568 13.76 14.544l42.815-42.832-28.304-28.288zM133.794 373.713c-125.040 125.040-125.055 327.438 0 452.494 125.040 125.040 327.454 125.055 452.51 0 124.751-124.751 125.391-327.118 0-452.494-126.815-126.831-329.166-123.344-452.51 0zM727.695 317.136l56.56-56.56-84.832-84.832-56.56 56.56 84.832 84.832zM966.398-6.398c-23.44-23.456-61.375-23.471-84.832 0l-153.871 153.855 84.848 84.848 153.855-153.888c23.456-23.423 23.471-61.36 0-84.815zM558.016 797.918c-109.36 109.36-286.543 109.423-395.95 0.016-109.151-109.168-109.151-286.799 0-395.966 109.423-109.423 286.51-109.423 395.934 0 109.168 109.168 109.183 286.799 0.016 395.95zM529.728 430.256c-93.792-93.792-245.566-93.807-339.391 0-93.535 93.568-93.535 245.823 0 339.406 93.744 93.727 245.631 93.76 339.406-0.032 93.568-93.552 93.552-245.807-0.016-339.375zM360.048 799.918c-53.456 0-103.68-20.8-141.407-58.559-21.872-21.872-37.984-47.711-47.856-76.831-3.536-10.448 2.048-21.807 12.512-25.36 10.48-3.552 21.824 2.080 25.36 12.512 7.888 23.248 20.768 43.904 38.272 61.407 30.176 30.192 70.352 46.831 113.119 46.831 11.040 0 20 8.944 20 20 0 11.040-8.96 20-20 20z" />
<glyph unicode="&#xe655;" d="M988.687 41.937h-953.375c-19.503 0-35.312 15.807-35.312 35.312v812.127c0 19.503 15.807 35.312 35.312 35.312h953.375c19.503 0 35.312-15.807 35.312-35.312v-812.127c0-19.503-15.807-35.312-35.312-35.312z" />
<glyph unicode="&#xe656;" d="M756.384 41.937c24.080 41.584 38.096 89.728 38.096 141.232 0 156.016-126.464 282.495-282.48 282.495s-282.48-126.48-282.48-282.495c0-51.504 14.016-99.648 38.096-141.232h488.767z" />
<glyph unicode="&#xe657;" d="M1023.999 748.144h-1023.998v141.232c0 19.503 15.807 35.312 35.312 35.312h953.375c19.503 0 35.312-15.807 35.312-35.312v-141.232z" />
<glyph unicode="&#xe658;" d="M0.001 748.144h1023.998v-35.312h-1023.998v35.312z" />
<glyph unicode="&#xe659;" d="M203.024 845.247c0-29.249-23.711-52.96-52.96-52.96s-52.96 23.711-52.96 52.96c0 29.249 23.711 52.96 52.96 52.96s52.96-23.711 52.96-52.96z" />
<glyph unicode="&#xe65a;" d="M150.065 818.751c-14.624 0-26.48 11.872-26.48 26.496v88.271c0 14.624 11.856 26.48 26.48 26.48s26.48-11.856 26.48-26.48v-88.271c0.016-14.624-11.856-26.496-26.48-26.496z" />
<glyph unicode="&#xe65b;" d="M150.065 871.727c-14.624 0-26.48 11.856-26.48 26.48v-52.96c0-14.64 11.856-26.496 26.48-26.496s26.48 11.872 26.48 26.496v52.96c0.016-14.624-11.856-26.48-26.48-26.48z" />
<glyph unicode="&#xe65c;" d="M926.896 845.247c0-29.249-23.711-52.96-52.96-52.96s-52.96 23.711-52.96 52.96c0 29.249 23.711 52.96 52.96 52.96s52.96-23.711 52.96-52.96z" />
<glyph unicode="&#xe65d;" d="M873.935 818.751c-14.624 0-26.48 11.872-26.48 26.496v88.271c0 14.624 11.856 26.48 26.48 26.48s26.48-11.856 26.48-26.48v-88.271c0-14.624-11.856-26.496-26.48-26.496z" />
<glyph unicode="&#xe65e;" d="M873.935 871.727c-14.624 0-26.48 11.856-26.48 26.48v-52.96c0-14.64 11.856-26.496 26.48-26.496s26.48 11.872 26.48 26.496v52.96c0-14.624-11.856-26.48-26.48-26.48z" />
<glyph unicode="&#xe65f;" d="M194.208 500.96h-70.624c-9.744 0-17.648 7.92-17.648 17.664v52.96c0 9.761 7.904 17.664 17.648 17.664h70.624c9.744 0 17.648-7.904 17.648-17.664v-52.96c0-9.761-7.904-17.664-17.648-17.664z" />
<glyph unicode="&#xe660;" d="M335.456 500.96h-70.624c-9.761 0-17.664 7.92-17.664 17.664v52.96c0 9.761 7.904 17.664 17.664 17.664h70.624c9.744 0 17.648-7.904 17.648-17.664v-52.96c0-9.761-7.904-17.664-17.648-17.664z" />
<glyph unicode="&#xe661;" d="M476.688 500.96h-70.624c-9.744 0-17.648 7.92-17.648 17.664v52.96c0 9.761 7.904 17.664 17.648 17.664h70.624c9.761 0 17.664-7.904 17.664-17.664v-52.96c0-9.761-7.904-17.664-17.664-17.664z" />
<glyph unicode="&#xe662;" d="M617.936 500.96h-70.624c-9.744 0-17.648 7.92-17.648 17.664v52.96c0 9.761 7.904 17.664 17.648 17.664h70.624c9.744 0 17.648-7.904 17.648-17.664v-52.96c0-9.761-7.904-17.664-17.648-17.664z" />
<glyph unicode="&#xe663;" d="M759.168 500.96h-70.608c-9.761 0-17.664 7.92-17.664 17.664v52.96c0 9.761 7.904 17.664 17.664 17.664h70.608c9.761 0 17.664-7.904 17.664-17.664v-52.96c0-9.761-7.904-17.664-17.664-17.664z" />
<glyph unicode="&#xe664;" d="M900.415 500.96h-70.624c-9.744 0-17.648 7.92-17.648 17.664v52.96c0 9.761 7.904 17.664 17.648 17.664h70.624c9.744 0 17.648-7.904 17.648-17.664v-52.96c0-9.761-7.904-17.664-17.648-17.664z" />
<glyph unicode="&#xe665;" d="M194.208 624.56h-70.624c-9.744 0-17.648 7.904-17.648 17.648s7.904 17.664 17.648 17.664h70.624c9.744 0 17.648-7.92 17.648-17.664s-7.904-17.648-17.648-17.648z" />
<glyph unicode="&#xe666;" d="M335.456 624.56h-70.624c-9.761 0-17.664 7.904-17.664 17.648s7.904 17.664 17.664 17.664h70.624c9.744 0 17.648-7.92 17.648-17.664s-7.904-17.648-17.648-17.648z" />
<glyph unicode="&#xe667;" d="M476.688 624.56h-70.624c-9.744 0-17.648 7.904-17.648 17.648s7.904 17.664 17.648 17.664h70.624c9.761 0 17.664-7.92 17.664-17.664s-7.904-17.648-17.664-17.648z" />
<glyph unicode="&#xe668;" d="M617.936 624.56h-70.624c-9.744 0-17.648 7.904-17.648 17.648s7.904 17.664 17.648 17.664h70.624c9.744 0 17.648-7.92 17.648-17.664s-7.904-17.648-17.648-17.648z" />
<glyph unicode="&#xe669;" d="M759.168 624.56h-70.608c-9.761 0-17.664 7.904-17.664 17.648s7.904 17.664 17.664 17.664h70.608c9.761 0 17.664-7.92 17.664-17.664s-7.904-17.648-17.664-17.648z" />
<glyph unicode="&#xe66a;" d="M900.415 624.56h-70.624c-9.744 0-17.648 7.904-17.648 17.648s7.904 17.664 17.648 17.664h70.624c9.744 0 17.648-7.92 17.648-17.664s-7.904-17.648-17.648-17.648z" />
<glyph unicode="&#xe66b;" d="M194.208 377.376h-70.624c-9.744 0-17.648 7.904-17.648 17.664v52.96c0 9.744 7.904 17.664 17.648 17.664h70.624c9.744 0 17.648-7.92 17.648-17.664v-52.96c0-9.761-7.904-17.664-17.648-17.664z" />
<glyph unicode="&#xe66c;" d="M335.456 377.376h-70.624c-9.761 0-17.664 7.904-17.664 17.664v52.96c0 9.744 7.904 17.664 17.664 17.664h70.624c9.744 0 17.648-7.92 17.648-17.664v-52.96c0-9.761-7.904-17.664-17.648-17.664z" />
<glyph unicode="&#xe66d;" d="M476.688 377.376h-70.624c-9.744 0-17.648 7.904-17.648 17.664v52.96c0 9.744 7.904 17.664 17.648 17.664h70.624c9.761 0 17.664-7.92 17.664-17.664v-52.96c0-9.761-7.904-17.664-17.664-17.664z" />
<glyph unicode="&#xe66e;" d="M617.936 377.376h-70.624c-9.744 0-17.648 7.904-17.648 17.664v52.96c0 9.744 7.904 17.664 17.648 17.664h70.624c9.744 0 17.648-7.92 17.648-17.664v-52.96c0-9.761-7.904-17.664-17.648-17.664z" />
<glyph unicode="&#xe66f;" d="M759.168 377.376h-70.608c-9.761 0-17.664 7.904-17.664 17.664v52.96c0 9.744 7.904 17.664 17.664 17.664h70.608c9.761 0 17.664-7.92 17.664-17.664v-52.96c0-9.761-7.904-17.664-17.664-17.664z" />
<glyph unicode="&#xe670;" d="M900.415 377.376h-70.624c-9.744 0-17.648 7.904-17.648 17.664v52.96c0 9.744 7.904 17.664 17.648 17.664h70.624c9.744 0 17.648-7.92 17.648-17.664v-52.96c0-9.761-7.904-17.664-17.648-17.664z" />
<glyph unicode="&#xe671;" d="M194.208 253.793h-70.624c-9.744 0-17.648 7.904-17.648 17.664v52.96c0 9.744 7.904 17.664 17.648 17.664h70.624c9.744 0 17.648-7.92 17.648-17.664v-52.96c0-9.761-7.904-17.664-17.648-17.664z" />
<glyph unicode="&#xe672;" d="M335.456 253.793h-70.624c-9.761 0-17.664 7.904-17.664 17.664v52.96c0 9.744 7.904 17.664 17.664 17.664h70.624c9.744 0 17.648-7.92 17.648-17.664v-52.96c0-9.761-7.904-17.664-17.648-17.664z" />
<glyph unicode="&#xe673;" d="M476.688 253.793h-70.624c-9.744 0-17.648 7.904-17.648 17.664v52.96c0 9.744 7.904 17.664 17.648 17.664h70.624c9.761 0 17.664-7.92 17.664-17.664v-52.96c0-9.761-7.904-17.664-17.664-17.664z" />
<glyph unicode="&#xe674;" d="M617.936 253.793h-70.624c-9.744 0-17.648 7.904-17.648 17.664v52.96c0 9.744 7.904 17.664 17.648 17.664h70.624c9.744 0 17.648-7.92 17.648-17.664v-52.96c0-9.761-7.904-17.664-17.648-17.664z" />
<glyph unicode="&#xe675;" d="M759.168 253.793h-70.608c-9.761 0-17.664 7.904-17.664 17.664v52.96c0 9.744 7.904 17.664 17.664 17.664h70.608c9.761 0 17.664-7.92 17.664-17.664v-52.96c0-9.761-7.904-17.664-17.664-17.664z" />
<glyph unicode="&#xe676;" d="M900.415 253.793h-70.624c-9.744 0-17.648 7.904-17.648 17.664v52.96c0 9.744 7.904 17.664 17.648 17.664h70.624c9.744 0 17.648-7.92 17.648-17.664v-52.96c0-9.761-7.904-17.664-17.648-17.664z" />
<glyph unicode="&#xe677;" d="M194.208 130.208h-70.624c-9.744 0-17.648 7.904-17.648 17.648v52.976c0 9.744 7.904 17.648 17.648 17.648h70.624c9.744 0 17.648-7.904 17.648-17.648v-52.976c0-9.744-7.904-17.648-17.648-17.648z" />
<glyph unicode="&#xe678;" d="M335.456 130.208h-70.624c-9.761 0-17.664 7.904-17.664 17.648v52.976c0 9.744 7.904 17.648 17.664 17.648h70.624c9.744 0 17.648-7.904 17.648-17.648v-52.976c0-9.744-7.904-17.648-17.648-17.648z" />
<glyph unicode="&#xe679;" d="M476.688 130.208h-70.624c-9.744 0-17.648 7.904-17.648 17.648v52.976c0 9.744 7.904 17.648 17.648 17.648h70.624c9.761 0 17.664-7.904 17.664-17.648v-52.976c0-9.744-7.904-17.648-17.664-17.648z" />
<glyph unicode="&#xe67a;" d="M617.936 130.208h-70.624c-9.744 0-17.648 7.904-17.648 17.648v52.976c0 9.744 7.904 17.648 17.648 17.648h70.624c9.744 0 17.648-7.904 17.648-17.648v-52.976c0-9.744-7.904-17.648-17.648-17.648z" />
<glyph unicode="&#xe67b;" d="M759.168 130.208h-70.608c-9.761 0-17.664 7.904-17.664 17.648v52.976c0 9.744 7.904 17.648 17.664 17.648h70.608c9.761 0 17.664-7.904 17.664-17.648v-52.976c0-9.744-7.904-17.648-17.664-17.648z" />
<glyph unicode="&#xe67c;" d="M900.415 130.208h-70.624c-9.744 0-17.648 7.904-17.648 17.648v52.976c0 9.744 7.904 17.648 17.648 17.648h70.624c9.744 0 17.648-7.904 17.648-17.648v-52.976c0-9.744-7.904-17.648-17.648-17.648z" />
<glyph unicode="&#xe67d;" d="M759.168 183.168c0-136.507-110.661-247.168-247.168-247.168s-247.168 110.661-247.168 247.168c0 136.507 110.661 247.168 247.168 247.168s247.168-110.661 247.168-247.168z" />
<glyph unicode="&#xe67e;" d="M723.856 183.168c0-117.004-94.851-211.856-211.856-211.856s-211.856 94.851-211.856 211.856c0 117.004 94.851 211.856 211.856 211.856s211.856-94.851 211.856-211.856z" />
<glyph unicode="&#xe67f;" d="M635.583 183.168c0-68.253-55.33-123.583-123.583-123.583s-123.583 55.33-123.583 123.583c0 68.253 55.33 123.583 123.583 123.583s123.583-55.33 123.583-123.583z" />
<glyph unicode="&#xe680;" d="M512 412.688c-9.744 0-17.648-7.904-17.648-17.648v-17.664c0-9.744 7.904-17.648 17.648-17.648s17.664 7.904 17.664 17.648v17.664c0 9.744-7.92 17.648-17.664 17.648z" />
<glyph unicode="&#xe681;" d="M512 6.625c-9.744 0-17.648-7.904-17.648-17.664v-17.648c0-9.761 7.904-17.664 17.648-17.664s17.664 7.904 17.664 17.664v17.648c0 9.761-7.92 17.664-17.664 17.664z" />
<glyph unicode="&#xe682;" d="M741.519 183.168c0 9.761-7.904 17.664-17.664 17.664h-17.648c-9.744 0-17.664-7.904-17.664-17.664 0-9.744 7.92-17.648 17.664-17.648h17.648c9.761 0 17.664 7.904 17.664 17.648z" />
<glyph unicode="&#xe683;" d="M335.456 183.168c0 9.761-7.92 17.664-17.664 17.664h-17.648c-9.761 0-17.664-7.904-17.664-17.664 0-9.744 7.904-17.648 17.664-17.648h17.648c9.761 0 17.664 7.904 17.664 17.648z" />
<glyph unicode="&#xe684;" d="M512 112.561c-9.744 0-17.648 7.904-17.648 17.648v176.56c0 9.744 7.904 17.648 17.648 17.648s17.664-7.904 17.664-17.648v-176.56c0-9.744-7.92-17.648-17.664-17.648z" />
<glyph unicode="&#xe685;" d="M441.376 183.168c0 9.761 7.904 17.664 17.664 17.664h176.544c9.761 0 17.664-7.904 17.664-17.664 0-9.744-7.904-17.648-17.664-17.648h-176.544c-9.761 0-17.664 7.904-17.664 17.648z" />
<glyph unicode="&#xe686;" d="M547.312 183.168c0-19.502-15.81-35.312-35.312-35.312s-35.312 15.81-35.312 35.312c0 19.502 15.81 35.312 35.312 35.312s35.312-15.81 35.312-35.312z" />
<glyph unicode="&#xe687;" glyph-name="twitter" d="M285.414 633.394l0.922-0.435c2.689-1.228 5.529-1.817 8.319-1.817 7.577 0 14.822 4.326 18.176 11.674 4.609 10.035 0.204 21.913-9.831 26.522l-0.846 0.358c-10.035 4.633-21.913 0.257-26.522-9.754-4.633-10.035-0.257-21.913 9.78-26.548zM1019.288 765.977c-5.734 6.81-15.257 9.011-23.398 5.402-12.186-5.402-24.576-10.138-37.119-14.233 16.282 20.634 28.927 44.186 37.196 69.658 2.559 7.911-0.026 16.588-6.529 21.786s-15.54 5.811-22.682 1.588c-34.944-20.711-72.499-35.61-111.769-44.364-41.036 39.424-96.409 61.824-153.703 61.824-122.291 0-221.773-99.482-221.773-221.773 0-8.012 0.435-16.102 1.305-24.191-31.436 2.994-62.567 8.653-92.826 16.871-10.674 2.893-21.658-3.405-24.551-14.055s3.405-21.658 14.055-24.551c40.986-11.136 83.43-17.869 126.157-20.019 6.246-0.307 12.262 2.304 16.282 7.091 4.044 4.762 5.606 11.162 4.249 17.254-3.097 13.824-4.686 27.827-4.686 41.601 0 100.249 81.562 181.785 181.785 181.785 50.1 0 98.406-20.889 132.53-57.319 4.71-5.017 11.647-7.271 18.407-5.964 27.469 5.325 54.195 13.363 79.974 23.962-14.437-20.046-32.897-37.095-54.399-49.971-8.089-4.837-11.7-14.694-8.653-23.629 3.047-8.908 11.929-14.514 21.3-13.389 18.457 2.177 36.761 5.606 54.784 10.239-16.384-17.152-34.38-32.794-53.837-46.796-5.351-3.84-8.473-10.112-8.319-16.691l0.615-25.907c-0.127-272.282-207.386-553.829-554.137-553.829-79.232 0-156.877 16.845-228.3 49.204 84.071 6.349 162.969 36.838 229.862 89.166 6.656 5.197 9.319 14.029 6.656 22.067-2.662 8.012-10.112 13.491-18.561 13.671-66.943 1.408-126.847 39.169-157.44 96.769 2.177-0.051 4.378-0.077 6.579-0.077 19.839 0 39.45 2.509 58.239 7.5 8.985 2.381 15.156 10.624 14.874 19.916s-6.911 17.177-16.026 19.020c-74.599 15.103-131.122 75.469-143.308 148.837 22.042-8.064 44.902-12.416 68.274-13.031 8.908-0.204 16.896 5.479 19.584 13.978 2.689 8.473-0.562 17.741-7.987 22.682-50.636 33.69-80.871 90.214-80.871 151.142 0 22.554 4.121 44.722 12.082 65.383 32.614-35.994 69.427-67.839 109.747-94.926 9.191-6.144 21.606-3.712 27.776 5.452 6.144 9.165 3.712 21.606-5.479 27.75-45.619 30.643-86.426 67.815-121.267 110.514-4.147 5.094-10.496 7.807-17.023 7.322-6.529-0.512-12.416-4.172-15.718-9.831-19.712-33.587-30.105-72.191-30.105-111.667 0-48.769 15.846-95.181 44.211-132.992-5.402 2.355-10.751 4.991-15.999 7.911-6.221 3.431-13.747 3.302-19.839-0.281-6.092-3.609-9.831-10.138-9.831-17.229v-2.458c0-73.984 36.915-141.21 94.618-181.888-0.103 0.026-0.231 0.051-0.358 0.077-6.911 1.305-14.029-1.151-18.714-6.426-4.659-5.299-6.195-12.647-4.020-19.38 23.449-72.832 82.303-127.258 154.085-146.509-59.392-35.276-126.694-53.734-197.248-53.734-15.309 0-30.311 0.846-45.823 2.559-9.242 1.050-17.972-4.429-21.069-13.183s0.231-18.508 8.064-23.526c95.743-61.363 206.514-93.772 320.332-93.772 91.545 0 177.255 18.176 254.694 54.067 71.014 32.897 133.785 79.924 186.547 139.775 97.177 110.209 152.884 256.076 152.884 400.205 0 0.154 0 0.307 0 0.486l-0.358 15.744c38.092 28.826 70.809 63.564 97.331 103.372 4.941 7.399 4.378 17.152-1.357 23.962zM753.382 381.951c-9.446 5.683-21.735 2.612-27.418-6.861l-0.051-0.051c-5.683-9.472-2.586-21.735 6.887-27.418 3.201-1.92 6.733-2.842 10.239-2.842 6.81 0 13.466 3.482 17.203 9.727 5.683 9.472 2.612 21.759-6.861 27.442zM714.369 321.766c-8.526 7.014-21.12 5.811-28.161-2.713-34.995-42.471-76.391-77.516-123.007-104.166-9.6-5.479-12.928-17.689-7.449-27.289 3.686-6.452 10.446-10.086 17.383-10.086 3.354 0 6.784 0.87 9.907 2.636 50.842 29.057 95.923 67.251 134.042 113.46 7.014 8.526 5.811 21.146-2.713 28.161z" />
<glyph unicode="&#xe688;" glyph-name="user" d="M512 959.999c-131.455 0-238.415-106.96-238.415-238.439 0-131.455 106.96-238.415 238.415-238.415s238.415 106.96 238.415 238.415c0 131.481-106.96 238.439-238.415 238.439zM512 523.947c-108.962 0-197.613 88.651-197.613 197.613 0 108.988 88.651 197.639 197.613 197.639s197.613-88.651 197.613-197.639c0-108.962-88.651-197.613-197.613-197.613zM852.531 296.943c-90.959 90.959-211.889 141.065-340.531 141.065s-249.571-50.107-340.531-141.065c-90.959-90.959-141.065-211.889-141.065-340.531 0-11.259 9.128-20.413 20.413-20.413h922.365c11.285 0 20.413 9.154 20.413 20.413 0 128.64-50.107 249.571-141.065 340.531zM71.662-23.199c10.702 233.621 204.13 420.408 440.338 420.408s429.637-186.785 440.338-420.408h-880.677zM365.304 44.125h-232.709c-11.259 0-20.387-9.128-20.387-20.413 0-11.259 9.128-20.387 20.387-20.387h232.709c11.259 0 20.387 9.128 20.387 20.387 0 11.285-9.128 20.413-20.387 20.413zM451.243 44.125h-14.682c-11.259 0-20.387-9.128-20.387-20.413 0-11.259 9.128-20.387 20.387-20.387h14.682c11.259 0 20.387 9.128 20.387 20.387 0 11.285-9.128 20.413-20.387 20.413z" />
<glyph unicode="&#xe689;" glyph-name="water" d="M17.076 635.742h119.455c9.424 0 17.072-7.648 17.072-17.072v-51.2h153.598v17.072c0 9.424 7.648 17.055 17.072 17.055h68.255v85.343c0 9.424 7.648 17.055 17.072 17.055h51.2v102.399h-49.488l-102.079-20.479c-39.552-7.904-78.016 17.76-85.919 57.296-7.919 39.552 17.744 78.031 57.296 85.935 9.439 1.888 19.168 1.888 28.624 0l102.079-20.352h49.488v34.143c0 9.424 7.648 17.055 17.072 17.055h68.255c9.424 0 17.072-7.632 17.072-17.055v-34.143h49.488l102.095 20.479c39.552 7.952 78.064-17.648 86.015-57.2s-17.663-78.064-57.215-86.015c-4.72-0.96-9.535-1.44-14.368-1.44-4.848 0-9.68 0.48-14.431 1.44l-102.095 20.335h-49.488v-102.399h51.2c9.424 0 17.072-7.632 17.072-17.055v-85.343h68.255c9.424 0 17.072-7.632 17.072-17.055v-34.143h85.327c122.478-0.128 221.726-99.392 221.87-221.854v-102.399c0-9.424-7.648-17.072-17.072-17.072h-170.654c-9.424 0-17.072 7.648-17.072 17.072v102.399c0 9.424-7.648 17.055-17.072 17.055h-85.327v-34.128c0-9.424-7.648-17.072-17.072-17.072h-375.452c-9.424 0-17.072 7.648-17.072 17.072v17.072h-153.598v-51.2c0-9.424-7.648-17.072-17.072-17.072h-119.455c-9.424 0-17.072 7.648-17.072 17.072v341.325c0 9.424 7.648 17.072 17.072 17.072zM460.8 874.667h-51.2c-1.152-0.016-2.287 0.112-3.408 0.336l-103.743 20.736c-21.056 4.208-41.536-9.472-45.744-30.528-4.192-21.071 9.472-41.552 30.543-45.76 5.024-0.993 10.192-0.993 15.215 0l103.727 20.736c1.12 0.24 2.256 0.352 3.408 0.352h51.2v34.128zM716.798 379.745h85.327c28.288 0 51.2-22.928 51.2-51.2v-85.343h136.543v85.343c-0.128 103.631-84.112 187.598-187.742 187.727h-85.327v-136.527zM529.072 925.867h-34.143v-17.072h34.143v17.072zM529.072 874.667h-34.143v-34.128h34.143v34.128zM529.072 806.397h-34.143v-102.399h34.143v102.399zM614.399 840.54c1.152 0 2.287-0.112 3.408-0.352l103.743-20.736c21.056-4.192 41.536 9.472 45.744 30.543 4.192 21.071-9.472 41.552-30.543 45.744-5.024 1.008-10.192 1.008-15.215 0l-103.727-20.736c-1.12-0.224-2.256-0.352-3.408-0.336h-51.2v-34.128h51.2zM597.327 669.87h-170.654v-68.272h170.654v68.272zM341.33 328.545h341.34v238.925h-341.34v-238.925zM153.603 362.673h153.598v170.67h-153.598v-170.67zM34.133 294.402h85.343v307.197h-85.343v-307.197zM845.58 52.756l60.976 113.215c5.248 8.304 16.24 10.783 24.528 5.536 2.239-1.407 4.128-3.312 5.552-5.536l60.976-113.215c12.944-23.76 12.288-52.624-1.712-75.791-15.744-25.871-44.015-41.456-74.303-40.96-30.288-0.496-58.559 15.088-74.303 40.96-14 23.168-14.655 52.032-1.712 75.791zM876.573-5.516c9.632-15.52 26.768-24.784 45.023-24.336 18.255-0.448 35.391 8.816 45.023 24.336 7.871 12.832 8.224 28.927 0.912 42.096l-45.936 85.343-45.936-85.343c-7.312-13.168-6.96-29.264 0.912-42.096z" />
<glyph unicode="&#xe68a;" glyph-name="youtube" d="M517.068 817.997h-1.459c-0.026 0-0.026 0-0.051 0-11.034 0-19.969-8.908-19.993-19.942 0-0.026 0-0.026 0-0.051 0-11.034 8.908-19.969 19.942-19.993l1.434-0.026c0.026 0 0.051 0 0.077 0 11.008 0 19.969 8.934 19.993 19.969 0 0 0 0.026 0 0.026 0 11.034-8.908 19.993-19.942 20.019zM1002.777 693.786c-13.132 49.92-51.866 89.242-101.068 102.63-50.766 13.798-192.257 18.892-302.002 20.736-10.982 0.154-20.147-8.627-20.351-19.661-0.18-11.059 8.627-20.147 19.686-20.327 151.91-2.559 255.667-9.42 292.172-19.354 35.456-9.626 63.386-38.068 72.883-74.214 19.661-74.572 19.916-233.983 19.916-235.597 0-1.588-0.257-161.023-19.916-235.597-9.497-36.148-37.427-64.564-72.909-74.214-73.292-19.942-376.14-20.197-379.186-20.197s-305.895 0.257-379.186 20.197c-35.482 9.651-63.411 38.068-72.909 74.214-19.661 74.572-19.892 234.009-19.892 235.597 0 1.612 0.231 161.023 19.892 235.597 9.497 36.148 37.427 64.564 72.909 74.214 37.299 10.162 144.127 17.076 300.8 19.481 11.034 0.18 19.866 9.268 19.686 20.301-0.18 11.059-9.292 19.789-20.301 19.686-113.152-1.74-258.892-6.757-310.682-20.863-49.228-13.389-87.962-52.71-101.094-102.63-20.992-79.566-21.223-239.027-21.223-245.786s0.231-166.22 21.223-245.786c13.132-49.92 51.866-89.242 101.068-102.606 78.439-21.351 377.036-21.606 389.709-21.606s311.27 0.257 389.683 21.606c49.228 13.363 87.962 52.686 101.094 102.606 20.992 79.566 21.223 239.027 21.223 245.786s-0.231 166.22-21.223 245.786zM115.995 500.967c-11.034 0-19.993-8.961-19.993-20.019v-162.995c0-11.034 8.961-19.993 19.993-19.993 11.059 0 20.019 8.961 20.019 19.993v162.995c0 11.059-8.961 20.019-20.019 20.019zM115.995 591.949c-11.034 0-19.993-8.934-19.993-19.993v-0.231c0-11.059 8.961-19.993 19.993-19.993 11.059 0 20.019 8.934 20.019 19.993v0.231c0 11.059-8.961 19.993-20.019 19.993zM674.202 462.259l-247.987 144c-6.195 3.583-13.824 3.609-20.019 0.026-6.195-3.559-10.035-10.162-10.035-17.331v-288c0-7.142 3.84-13.747 10.035-17.331 3.071-1.766 6.529-2.662 9.984-2.662s6.937 0.896 10.035 2.713l247.987 144c6.169 3.559 9.958 10.162 9.958 17.28 0 7.142-3.789 13.721-9.958 17.306zM436.173 335.693v218.522l188.16-109.26-188.16-109.26z" />
<glyph unicode="&#xe900;" glyph-name="newspaper" d="M1004.091 357.726c-12.652 6.983-28.708 5.449-44.052-4.211l-283.447-178.487c-7.888-4.969-10.256-15.389-5.289-23.277 4.969-7.888 15.389-10.256 23.277-5.289l283.447 178.487c5.986 3.77 9.263 3.493 9.747 3.223 0.491-0.27 2.467-2.892 2.467-9.965 0-19.015-14.113-44.581-30.202-54.713l-274.787-173.032c-14.61-9.2-27.967-11.73-36.648-6.941-8.678 4.791-13.654 17.442-13.654 34.71 0 43.746 31.273 100.396 68.292 123.705l312.875 197.015c4.908 3.090 7.884 8.484 7.884 14.284s-2.977 11.194-7.884 14.284l-601.191 378.57c-5.496 3.461-12.493 3.461-17.988 0l-316.683-199.414c-45.001-28.339-80.254-92.193-80.254-145.373v-9.002c0-53.18 35.252-117.036 80.254-145.373l471.017-296.599c7.888-4.967 18.31-2.597 23.277 5.289 4.967 7.888 2.599 18.31-5.289 23.277l-471.017 296.599c-34.955 22.008-64.484 75.501-64.484 116.807v9.002c0 41.306 29.529 94.797 64.484 116.807l307.687 193.75 569.515-358.621-290.192-182.734c-47.137-29.682-84.062-96.568-84.062-152.273 0-30.371 11.043-53.193 31.098-64.264 8.055-4.447 16.937-6.653 26.351-6.653 14.023 0 29.223 4.897 44.599 14.581l274.787 173.032c25.78 16.233 45.971 52.813 45.971 83.278 0 18.13-7.256 32.534-19.908 39.519zM795.931 436.357c5.608 0 11.091 2.793 14.3 7.886 4.967 7.888 2.599 18.31-5.289 23.277l-390.016 245.591c-7.89 4.967-18.31 2.597-23.277-5.289-4.967-7.888-2.599-18.31 5.289-23.277l390.016-245.591c2.793-1.758 5.903-2.597 8.977-2.597zM728.451 391.562c5.62 0 11.113 2.804 14.316 7.915 4.953 7.897 2.566 18.315-5.334 23.266l-164.763 103.31c-7.902 4.956-18.317 2.563-23.266-5.334-4.953-7.899-2.566-18.315 5.334-23.266l164.763-103.31c2.786-1.749 5.885-2.581 8.95-2.581zM503.9 481.631c-7.906 4.938-18.319 2.53-23.257-5.379s-2.53-18.319 5.379-23.257l166.028-103.664c2.782-1.735 5.869-2.563 8.923-2.563 5.629 0 11.133 2.815 14.334 7.942 4.938 7.908 2.53 18.319-5.379 23.257l-166.028 103.664zM326.797 668.94l-140.275-88.342c-4.922-3.099-7.902-8.514-7.884-14.331s3.027-11.214 7.967-14.286l167.293-104.017c2.73-1.697 5.82-2.545 8.912-2.545 3.189 0 6.376 0.902 9.162 2.703l37.26 24.081c7.83 5.061 10.073 15.508 5.014 23.338s-15.508 10.071-23.338 5.014l-28.271-18.272-135.299 84.125 108.475 68.315 133.33-83.6-15.544-10.046c-7.83-5.061-10.073-15.508-5.014-23.338 5.061-7.83 15.515-10.073 23.338-5.014l37.809 24.438c4.845 3.133 7.755 8.523 7.717 14.293-0.041 5.768-3.025 11.118-7.913 14.183l-164.779 103.319c-5.491 3.446-12.472 3.439-17.959-0.016zM607.843 309.945c4.922 7.917 2.496 18.324-5.422 23.246l-167.297 104.022c-7.917 4.924-18.326 2.496-23.246-5.422-4.922-7.917-2.496-18.324 5.422-23.246l167.297-104.022c2.773-1.726 5.854-2.548 8.896-2.548 5.64 0 11.154 2.827 14.349 7.969zM120.465 525.955c-4.922-7.917-2.496-18.324 5.422-23.246l412.922-256.742c2.773-1.726 5.854-2.548 8.896-2.548 5.64 0 11.154 2.827 14.349 7.969 4.922 7.917 2.496 18.324-5.422 23.246l-412.922 256.742c-7.917 4.926-18.324 2.496-23.246-5.422z" />
<glyph unicode="&#xe901;" glyph-name="linkedin" d="M1007.966 774.012c8.856 0 16.034 7.178 16.034 16.034v85.512c0 46.56-37.882 84.442-84.442 84.442h-855.116c-46.56 0-84.442-37.882-84.442-84.442v-855.114c0-46.562 37.882-84.444 84.442-84.444h855.114c46.562 0 84.444 37.882 84.444 84.442v701.194c0 8.854-7.176 16.034-16.034 16.034-8.856 0-16.034-7.178-16.034-16.034v-701.194c0-28.88-23.494-52.376-52.376-52.376h-855.114c-28.88 0-52.376 23.496-52.376 52.376v855.116c0 28.88 23.496 52.376 52.376 52.376h855.114c28.882 0 52.376-23.496 52.376-52.376v-85.512c0.002-8.856 7.178-16.034 16.034-16.034zM306.772 482.204c8.854 0 16.034 7.178 16.034 16.034v69.478c0 8.854-7.178 16.034-16.034 16.034h-136.818c-8.854 0-16.034-7.178-16.034-16.034v-461.762c0-8.854 7.178-16.034 16.034-16.034h136.818c8.854 0 16.034 7.178 16.034 16.034v321.738c0 8.854-7.178 16.034-16.034 16.034s-16.034-7.178-16.034-16.034v-305.704h-104.75v429.694h104.752v-53.444c0-8.854 7.178-16.034 16.032-16.034zM816.1 539.828c-32.638 27.912-74.908 43.92-115.974 43.92-67.782 0-110.718-22.536-137.888-50.302v34.268c0 8.854-7.176 16.034-16.034 16.034h-136.818c-8.854 0-16.034-7.178-16.034-16.034v-461.762c0-8.854 7.178-16.034 16.034-16.034h136.818c8.856 0 16.034 7.178 16.034 16.034v222.332c0 42.914 36.064 69.478 69.478 69.478 40.258 0 69.478-29.22 69.478-69.478v-222.33c0-8.854 7.176-16.034 16.034-16.034h136.818c8.856 0 16.034 7.178 16.034 16.034v324.944c0 40.472-19.172 79.158-53.98 108.93zM838.012 121.988h-104.752v206.296c0 57.892-43.656 101.544-101.544 101.544-48.836 0-101.544-38.824-101.544-101.544v-206.296h-104.752v429.694h104.752v-69.478c0-7.312 5.146-13.852 12.25-15.578 7.32-1.776 15.1 1.946 18.3 8.77 23.742 50.62 70.646 76.286 139.406 76.286 65.090 0 137.888-51.656 137.888-120.784v-308.91zM238.364 806.080c-46.562 0-84.442-37.882-84.442-84.442s37.882-84.442 84.442-84.442 84.442 37.882 84.442 84.442-37.882 84.442-84.442 84.442zM238.364 669.26c-28.88 0-52.376 23.496-52.376 52.376s23.496 52.376 52.376 52.376 52.376-23.496 52.376-52.376-23.498-52.376-52.376-52.376z" />
<glyph unicode="&#xe902;" glyph-name="nextdoor-logo" d="M310.449 368.768c-10.596 0-19.201-8.578-19.201-19.176v-9.612c0-10.596 8.601-19.201 19.201-19.201s19.201 8.601 19.201 19.201v9.612c0 10.596-8.601 19.176-19.201 19.176zM310.449 297.753c-10.596 0-19.201-8.578-19.201-19.201v-145.855c0-10.596 8.601-19.201 19.201-19.201s19.201 8.601 19.201 19.201v145.855c0 10.621-8.601 19.201-19.201 19.201zM293.059 679.229c67.476 100.525 188.851 166.057 330.288 166.057 219.447 0 388.309-158.158 388.309-358.763 0 0 0-399.981 0-399.981 0-10.541-4.188-18.982-10.514-25.314-6.333-6.32-16.885-10.514-25.314-10.514 0 0-166.746 0-166.746 0-10.541 0-18.982 4.188-25.314 10.514-6.32 6.333-10.514 16.885-10.514 25.314v372.54c0 73.758-56.293 158.355-149.914 158.355-98.345 0-149.914-84.597-149.914-158.355 0 0 0-371.482 0-371.482 0-10.541-4.188-18.982-10.514-25.314-6.333-6.32-16.885-10.514-25.314-10.514 0 0-167.797 0-167.797 0-3.736 0-7.451 0.107-13.047 1.975-0.804 0.26-1.581 0.589-2.345 0.972-3.706 1.849-7.283 3.873-10.988 7.565-3.692 3.706-5.722 7.284-7.565 10.988-2.218 4.433-2.943 8.737-2.943 15.385v358.818c0 1.478-0.81 2.861-1.7 4.041-0.516 0.682-1.005 1.467-1.856 1.635l-1.278 0.309c-152.815 42.382-211.27 159.598-215.721 329.14-0.013 0.16-0.013 0.315-0.013 0.475 0 4.433 0.731 10.956 2.943 15.385 1.849 3.706 3.873 7.284 7.565 10.988 3.706 3.692 7.283 5.724 10.988 7.565 4.433 2.218 8.737 2.943 15.385 2.943h130.863c2.13 0 4.168-0.368 6.057-1.056h34.046c8.429 0 18.982-4.188 25.314-10.514 6.32-6.333 10.514-14.775 10.514-25.314l-0.013 0.583c1.815-56.387 10.165-87.552 36.21-104.175l0.336-0.136c0.086-0.033 0.181-0.053 0.26-0.086l0.221-0.033zM975.753 86.496l-0.422-0.033c0 0 0.26-0.033 0.422 0.033zM975.767 86.496l0.074 0.040c0.013 0 0.040 0 0.040 0.013v399.981c0 181.424-154.068 322.989-352.534 322.989-128.645 0-239.381-58.92-300.685-150.378-0.181-0.26-0.361-0.516-0.549-0.771-6.111-8.148-12.377-11.968-20.524-14.004-0.274-0.074-0.549-0.136-0.831-0.188-9.689-1.944-17.469-0.221-25.221 3.652-0.485 0.241-0.972 0.51-1.434 0.804-34.603 21.476-51.437 59.879-53.819 133.872-0.013 0.201-0.013 0.389-0.013 0.583 0 0.013-0.033 0.013-0.040 0.013l-0.074 0.040h-40.038c-2.13 0-4.168 0.368-6.057 1.056l-125.892-0.053-0.020-0.898c4.041-151.008 53.189-257.355 189.233-295.22 9.253-2.099 16.852-7.537 22.48-15.030 5.447-7.262 8.853-16.423 8.853-25.51v-358.818l0.013-1.045 0.033-0.020 0.040-0.040c0.382-0.040 0.707 0 1.025 0l167.811 0.040c0.013 0 0.040 0 0.040 0.013v371.482c0 90.875 64.521 194.134 185.689 194.134 115.338 0 185.689-103.258 185.689-194.134v-372.474l0.040-0.074c0-0.013 0-0.040 0.013-0.040h166.679zM809.035 86.62l-0.033 0.422c0 0-0.033-0.26 0.033-0.422zM269.576 87.052l0.348-0.136-0.496 0.212 0.147-0.074zM437.53 87.547l-0.422-0.033c0 0 0.26-0.033 0.422 0.033zM268.152 88.582c-0.094 0.254-0.188 0.496-0.285 0.682 0.107-0.221 0.188-0.456 0.285-0.682zM293.059 679.229l0.063-0.013h0.013c0.127 0.147 0.201 0.389 0.361 0.61l-0.434-0.603zM47.64 783.311l-0.136-0.361 0.094 0.221 0.053 0.147-0.013-0.013zM220.135 783.131c-0.16 0.063-0.422 0.033-0.422 0.033l0.422-0.033zM49.167 784.732c0.254 0.094 0.496 0.188 0.682 0.285-0.221-0.107-0.456-0.188-0.682-0.285z" />
<glyph unicode="&#xe903;" glyph-name="parks" d="M984.972 19.947c-0.948 33.676-23.788 61.362-53.75 70.76v12.14l22.486 14.25c6.996 4.434 9.076 13.7 4.64 20.698-4.434 6.996-13.702 9.074-20.698 4.64l-6.43-4.074v15.376c20.396 3.112 39.432 12.546 54.46 27.216 40.050 39.090 40.26 103.74-0.494 142.837 13.026 27.138 9.16 60.306-11.754 83.842 12.86 40.218-18.786 80.864-61.026 78.208-37.56-2.336-65.614-40.262-53.372-78.296-20.678-23.294-24.992-56.308-11.786-83.756-59.508-57.2-27.002-157.961 53.968-170.089v-59.93c-5.288-0.512-10.498-1.556-15.582-3.164-18.584 28.506-49.534 46.306-83.018 48.514 0 8.636 0 227.245 0 336.969 0 17.534-10.938 33.064-26.998 39.182v296.461c0 35.96 29.254 65.21 65.212 65.21s65.212-29.254 65.212-65.21v-13.594c-9.066-0.448-15.468 1.392-23.38-2.846-33.106-17.728-55.168-50.532-59.018-87.742-1.482-14.282 9.836-26.722 24.226-26.722h30.87v-23.59c0-24.026 20.318-42.22 40.976-41.968 22.042-1.14 43.020 17.48 43.020 41.968v23.59h30.87c14.412 0 25.702 12.464 24.226 26.716-3.85 37.216-25.912 70.018-59.016 87.748-7.882 4.22-14.36 2.416-22.782 2.846v13.592c0 61.5-57.93 107.36-118.156 92.396-0.504 0.052-1.014 0.078-1.532 0.078-22.46 0-40.734 18.272-40.734 40.732 0 8.286-6.714 14.998-14.998 14.998s-14.998-6.714-14.998-14.998c0-22.46-18.272-40.732-40.732-40.732-0.516 0-1.028-0.026-1.532-0.078-60.158 14.946-118.158-30.832-118.158-92.396v-13.592c-8.388-0.428-14.92 1.364-22.78-2.846-33.106-17.728-55.168-50.532-59.018-87.748-1.48-14.304 9.868-26.716 24.228-26.716h30.872v-23.59c0-24.802 21.442-43.194 43.014-41.968 0.858-0.010 1.648 0.054 2.364 0.132 1.278 0.102 2.486 0.25 3.772 0.476 1.154 0.198 2.498 0.486 3.614 0.792 18.388 4.874 31.234 21.554 31.234 40.568v23.59h30.87c14.382 0 25.706 12.432 24.228 26.718-3.852 37.214-25.914 70.016-59.024 87.75-7.916 4.234-14.342 2.396-23.376 2.842v13.592c0 35.96 29.254 65.212 65.212 65.212s65.212-29.254 65.212-65.212v-296.461c-15.76-6.056-26.998-21.312-26.998-39.182v-62.238c0-8.286 6.714-14.998 14.998-14.998s14.998 6.714 14.998 14.998v62.238c0 7.862 7.45 13.458 14.678 11.676 0.2-0.134 9.322-2.124 9.322-11.676v-197.005h-23.986v64.772c0 8.286-6.714 14.998-14.998 14.998-8.286 0-14.998-6.714-14.998-14.998 0-64.122 0-139.411 0-204.739-33.456-2.21-64.386-19.984-83.036-48.506-9.352 2.958-19.108 4.068-29.028 3.302-37.188-2.874-69.088-33.832-70.276-73.842h-16.798v94.104c25.636 1.042 46.172 25.63 38.858 52.676-4.726 17.834-20.562 30.416-38.858 31.164v30.188c22.136 13.444 26.998 43.13 10.402 62.872 22.908 27.188 3.528 69.008-32.112 69.008h-342.709c-8.284 0-14.998-6.714-14.998-14.998s6.716-14.998 14.998-14.998h342.703c5.422 0 10.182-3.668 11.604-9.038l0.050-0.196c1.824-7.618-3.994-14.768-11.654-14.768h-427.962c-7.612 0-13.494 7.104-11.648 14.788 0.136 0.2 2.162 9.21 11.648 9.21h15.262c8.286 0 14.998 6.714 14.998 14.998s-6.714 14.998-14.998 14.998h-15.262c-35.598 0-55.026-41.8-32.12-69-17.338-20.606-11.172-52.22 13.382-64.53v-28.466h-1.262c-23.242 0-41.998-18.94-41.998-41.998 0-23.158 18.84-41.998 41.998-41.998h1.262v-94.018h-9c-19.014 0-35.698-12.844-40.544-31.15-7.582-27.652 14.042-52.848 40.544-52.848h765.541c8.286 0 14.998 6.714 14.998 14.998 0 8.286-6.714 14.998-14.998 14.998h-765.539c-7.638 0-13.432 7.108-11.672 14.704 0.134 0.2 2.134 9.296 11.672 9.296 42.794 0 907.062 0 939.924 0 5.82 0 10.792-4.208 11.796-9.934 1.254-7.526-4.472-14.068-11.796-14.068h-104.388c-8.286 0-14.998-6.714-14.998-14.998s6.714-14.998 14.998-14.998h104.386c23.158 0 41.998 18.84 41.998 41.998 0.004 21.758-16.862 40.312-39.026 41.882zM932.75 657.24c0-7.682-7.184-13.444-14.68-11.676-0.2 0.134-9.322 2.12-9.322 11.676v23.59h24.002v-23.59zM945.96 768.14c21.704-12.122 36.714-33.152 41.134-57.314-26.456 0-97.462 0-132.699 0 4.422 24.162 19.428 45.192 41.136 57.314h50.428zM612.504 657.24c0-5.422-3.668-10.182-9.004-11.596-8.478-1.952-14.996 4.414-14.996 11.596v23.59h24v-23.59zM625.714 768.14c21.706-12.124 36.716-33.15 41.136-57.314-26.456 0-97.464 0-132.699 0 4.422 24.162 19.428 45.192 41.136 57.314h50.426zM58.138 266.766c0.134 0.2 2.122 9.322 11.678 9.322h427.962c5.732 0 11.534-4.032 11.998-12.312-0.164-6.474-5.484-11.692-11.998-11.692h-47.286c-29.376 0-366.503 0-380.675 0-7.69 0.002-13.448 7.2-11.678 14.682zM489.488 222.088v-24h-24v24h24zM435.492 222.088v-24h-300.417v24h300.417zM105.076 222.088v-24h-24v24h24zM105.076 20.071h-24v94.018h24c0-20.246 0-72.632 0-94.018zM435.492 20.071v0h-300.417v40.020h300.419v-40.020zM435.492 90.090v0h-300.417v24h300.419v-24zM489.488 20.071h-24c0 21.332 0 73.834 0 94.018h24v-94.018zM49.816 144.088c-6.558 0-12.124 5.346-11.974 12.26 0.244 6.944 5.8 11.744 11.974 11.744 23.876 0 448.020 0 467.958 0 5.422 0 10.182-3.668 11.604-9.038 1.556-9.216-4.76-14.964-11.604-14.964-326.781-0.002-283.187-0.002-467.958-0.002zM852.337 328.349v0c-0.006-0.006-0.012-0.012-0.018-0.016 0.006 0.004 0.012 0.010 0.018 0.016zM871.605 305.356c8.062 6.754 10.058 18.7 4.644 27.784-10.438 17.522-8.428 40.43 6.6 55.97 6.632 6.862 8.704 17.114 5.274 26.122-7.34 19.27 6.69 39.458 26.152 40.666 21.938 1.364 37.686-20.264 30.114-40.504-3.452-9.224-1.408-19.296 5.328-26.288 14.66-15.228 16.846-37.806 6.932-55.198-5.524-9.686-3.446-21.958 4.938-29.186 43.608-37.608 24.922-108.044-30.362-120.478v96.836c0 8.286-6.714 14.998-14.998 14.998s-14.998-6.714-14.998-14.998v-39.13l-5.166 3.684c-6.75 4.812-16.114 3.238-20.92-3.504-4.81-6.746-3.24-16.112 3.504-20.92l22.582-16.102v-20.92c-56.298 12.288-73.684 84.222-29.624 121.168zM760.625 862.925c-5.206 8.13-11.604 15.42-18.958 21.618 7.296 4.458 13.71 10.212 18.956 16.922 5.246-6.712 11.664-12.464 18.958-16.922-7.352-6.198-13.75-13.49-18.956-21.618zM748.625 249.088h24v-72.51h-24v72.51zM748.625 146.58h24c0-14.364 0-58.244 0-72.51h-24c0 14.266 0 58.146 0 72.51zM663.631 35.071v-15h-97.336c1.484 30.182 31.448 51.286 60.578 41.832 12.572-4.076 26.478 0.968 33.83 12.262 13.026 20.016 34.504 32.728 57.926 34.87v-34.966c-0.24 0-16.28 0-15.998 0-21.506 0-39-17.496-39-38.998zM827.619 20.071h-133.989v15c0 4.878 4.12 9 9 9 28.050 0 88.008 0 115.99 0 4.878 0 9-4.122 9-9v-15zM857.617 20.069v0 15.002c0 21.502-17.494 38.996-38.998 38.996-0.382 0-16.198 0-15.998 0v34.968c23.412-2.144 44.9-14.856 57.928-34.876 7.348-11.292 21.256-16.332 33.832-12.258 29.078 9.424 59.086-11.598 60.574-41.834h-97.338z" />
<glyph unicode="&#xe904;" glyph-name="tiktok" d="M534.613 959.147c55.893 0.853 111.36 0.427 166.827 0.853 3.413-65.28 26.88-131.84 74.667-177.92 47.787-47.36 115.2-69.12 180.907-76.373v-171.947c-61.44 2.133-123.307 14.933-179.2 41.387-24.32 11.093-46.933 25.173-69.12 39.68-0.427-124.587 0.427-249.173-0.853-373.333-3.413-59.733-23.040-119.040-57.6-168.107-55.893-81.92-152.747-135.253-252.16-136.96-61.013-3.413-122.027 13.227-174.080 43.947-86.187 50.773-146.773 143.787-155.733 243.627-0.853 21.333-1.28 42.667-0.427 63.573 7.68 81.067 47.787 158.72 110.080 211.627 70.827 61.44 169.813 90.88 262.4 73.387 0.853-63.147-1.707-126.293-1.707-189.44-42.24 13.653-91.733 9.813-128.853-15.787-26.88-17.493-47.36-44.373-58.027-74.667-8.96-21.76-6.4-45.653-5.973-68.693 10.24-69.973 77.653-128.853 149.333-122.453 47.787 0.427 93.44 28.16 118.187 68.693 8.107 14.080 17.067 28.587 17.493 45.227 4.267 76.373 2.56 152.32 2.987 228.693 0.427 171.947-0.427 343.467 0.853 514.987z" />
<glyph unicode="&#xe905;" glyph-name="nextdoor" d="M629.942 850.774c222.386 0 394.059-159.186 394.059-361.645v-424.482c0-2.55-0.491-5.012-1.48-7.387-0.982-2.327-2.375-4.474-4.165-6.264s-3.895-3.222-6.224-4.205c-2.327-0.982-4.83-1.521-7.34-1.568h-176.913c-2.55 0-5.059 0.491-7.387 1.48-2.327 0.982-4.474 2.416-6.264 4.205s-3.175 3.935-4.165 6.311c-0.942 2.375-1.433 4.878-1.386 7.428v394.9c0 87.757-67.043 187.335-178.75 187.335-117.077 0-178.75-99.531-178.75-187.335v-394.806c0-2.55-0.538-5.059-1.521-7.387s-2.416-4.474-4.205-6.264c-1.79-1.79-3.935-3.222-6.264-4.205s-4.83-1.521-7.387-1.521h-176.826c-1.877 0-3.801 0.269-5.598 0.808-1.836 0.538-3.539 1.346-5.1 2.416-1.568 1.077-3 2.327-4.205 3.801-1.211 1.48-2.194 3.088-2.866 4.878-0.222 0.579-0.451 1.211-0.626 1.79-0.182 0.626-0.357 1.211-0.451 1.836-0.135 0.626-0.222 1.251-0.269 1.877s-0.087 1.251-0.087 1.924v382.191c-0.047 2.772-0.538 5.503-1.433 8.147-0.942 2.597-2.24 5.059-3.935 7.252-1.702 2.194-3.761 4.070-6.089 5.591s-4.878 2.684-7.521 3.357c-155.519 42.607-212.806 161.554-216.789 331.841-0.047 1.924 0.222 3.848 0.76 5.685s1.346 3.626 2.416 5.234c1.030 1.608 2.327 3.088 3.801 4.299 1.48 1.251 3.135 2.24 4.878 3 0.579 0.269 1.211 0.491 1.79 0.673 0.626 0.182 1.251 0.357 1.877 0.491s1.251 0.222 1.877 0.269c0.626 0.047 1.299 0.087 1.924 0.087h139.5v-1.030h42.203c2.462 0 4.925-0.491 7.205-1.433s4.386-2.327 6.176-4.030c1.79-1.743 3.222-3.761 4.205-6.042s1.568-4.696 1.655-7.159c2.012-69.632 15.891-107.046 48.736-126.919 2.105-1.251 4.474-2.059 6.889-2.416s4.878-0.222 7.293 0.357c2.375 0.579 4.608 1.608 6.627 3.041 1.971 1.433 3.666 3.222 5.012 5.329v-0.047c68.744 101.858 191.372 168.315 335.077 168.315zM294.825 682.412v0z" />
<glyph unicode="&#xe906;" glyph-name="envelope1" d="M1024 545.143v-453.714c0-50.286-41.143-91.429-91.429-91.429h-841.143c-50.286 0-91.429 41.143-91.429 91.429v453.714c17.143-18.857 36.571-35.429 57.714-49.714 94.857-64.571 190.857-129.143 284-197.143 48-35.429 107.429-78.857 169.714-78.857h1.143c62.286 0 121.714 43.429 169.714 78.857 93.143 67.429 189.143 132.571 284.571 197.143 20.571 14.286 40 30.857 57.143 49.714zM1024 713.143c0-64-47.429-121.714-97.714-156.571-89.143-61.714-178.857-123.429-267.429-185.714-37.143-25.714-100-78.286-146.286-78.286h-1.143c-46.286 0-109.143 52.571-146.286 78.286-88.571 62.286-178.286 124-266.857 185.714-40.571 27.429-98.286 92-98.286 144 0 56 30.286 104 91.429 104h841.143c49.714 0 91.429-41.143 91.429-91.429z" />
<glyph unicode="&#xf000;" glyph-name="glass" d="M970.857 844.571c0-16.571-13.143-33.143-24.571-44.571l-361.143-361.143v-438.857h182.857c20 0 36.571-16.571 36.571-36.571s-16.571-36.571-36.571-36.571h-512c-20 0-36.571 16.571-36.571 36.571s16.571 36.571 36.571 36.571h182.857v438.857l-361.143 361.143c-11.429 11.429-24.571 28-24.571 44.571 0 28 35.429 33.143 56.571 33.143h804.571c21.143 0 56.571-5.143 56.571-33.143z" />
<glyph unicode="&#xf001;" glyph-name="music" horiz-adv-x="878" d="M877.714 822.857v-640c0-80.571-120.571-109.714-182.857-109.714s-182.857 29.143-182.857 109.714 120.571 109.714 182.857 109.714c37.714 0 75.429-6.857 109.714-22.286v306.857l-438.857-135.429v-405.143c0-80.571-120.571-109.714-182.857-109.714s-182.857 29.143-182.857 109.714 120.571 109.714 182.857 109.714c37.714 0 75.429-6.857 109.714-22.286v552.571c0 24 16 45.143 38.857 52.571l475.429 146.286c5.143 1.714 10.286 2.286 16 2.286 30.286 0 54.857-24.571 54.857-54.857z" />
</font>
</defs>
</svg>
