<?xml version="1.0" encoding="UTF-8" standalone="no"?>
<!DOCTYPE svg PUBLIC "-//W3C//DTD SVG 1.1//EN" "http://www.w3.org/Graphics/SVG/1.1/DTD/svg11.dtd">
<svg width="100%" height="100%" viewBox="0 0 347 352" version="1.1" xmlns="http://www.w3.org/2000/svg" xmlns:xlink="http://www.w3.org/1999/xlink" xml:space="preserve" xmlns:serif="http://www.serif.com/" style="fill-rule:evenodd;clip-rule:evenodd;stroke-linejoin:round;stroke-miterlimit:2;">
    <g transform="matrix(2.66667,0,0,2.66667,0,0)">
        <g id="Artboard1" transform="matrix(0.241343,0,0,1.01518,0,0)">
            <rect x="0" y="0" width="538.456" height="130" style="fill:none;"/>
            <g id="Logo" transform="matrix(4.14347,0,0,0.985044,2.62148,1.07404)">
                <g transform="matrix(1,0,0,1,55.2564,80.7189)">
                    <path d="M0,-31.63C-0.032,-31.61 -0.065,-31.591 -0.097,-31.571C-0.065,-31.591 -0.032,-31.61 0,-31.63M72.933,-24.133C72.098,-27.812 70.724,-31.364 68.864,-34.646C67.119,-37.726 64.95,-40.561 62.447,-43.064C59.637,-45.873 56.408,-48.259 52.885,-50.099C51.138,-51.012 49.322,-51.791 47.456,-52.427C46.998,-52.584 46.536,-52.732 46.072,-52.871C45.884,-52.927 45.607,-52.956 45.443,-53.06C45.382,-53.099 45.327,-53.178 45.277,-53.229C44.48,-54.04 43.683,-54.851 42.886,-55.663C41.465,-57.109 40.044,-58.555 38.623,-60.002C36.969,-61.685 35.316,-63.368 33.662,-65.052C32.19,-66.55 30.718,-68.048 29.246,-69.547C28.347,-70.462 27.448,-71.377 26.549,-72.292C26.444,-72.399 26.316,-72.589 26.176,-72.632C26.072,-72.664 25.908,-72.632 25.8,-72.632L22.075,-72.632C21.93,-72.632 21.936,-72.632 21.83,-72.705C21.346,-73.04 20.912,-73.491 20.466,-73.872C18.778,-75.317 17.091,-76.761 15.403,-78.205C14.692,-78.814 13.98,-79.423 13.269,-80.032C13.063,-80.208 12.858,-80.384 12.652,-80.56C12.617,-80.59 12.512,-80.716 12.464,-80.719C12.375,-80.725 12.138,-80.504 12.067,-80.458C11.718,-80.228 11.369,-79.999 11.02,-79.769C9.805,-78.969 8.589,-78.169 7.373,-77.369C5.669,-76.248 3.964,-75.127 2.26,-74.005C0.305,-72.719 -1.65,-71.432 -3.605,-70.146C-5.546,-68.869 -7.488,-67.592 -9.429,-66.314C-11.118,-65.203 -12.807,-64.092 -14.496,-62.98C-15.69,-62.195 -16.884,-61.409 -18.079,-60.623C-18.407,-60.407 -18.736,-60.191 -19.064,-59.974C-19.144,-59.922 -19.307,-59.762 -19.405,-59.751C-19.517,-59.739 -19.752,-59.893 -19.853,-59.934C-20.207,-60.079 -20.561,-60.223 -20.915,-60.367C-21.954,-60.792 -22.994,-61.216 -24.034,-61.64C-24.968,-62.022 -25.903,-62.403 -26.838,-62.785C-27.034,-62.865 -27.418,-63.116 -27.622,-63.064C-27.831,-63.011 -28.09,-62.757 -28.268,-62.64C-28.718,-62.345 -29.168,-62.05 -29.617,-61.755C-31.044,-60.818 -32.472,-59.882 -33.899,-58.945C-35.761,-57.723 -37.623,-56.501 -39.486,-55.279C-41.463,-53.982 -43.44,-52.684 -45.417,-51.387C-47.162,-50.242 -48.907,-49.097 -50.652,-47.952C-51.845,-47.169 -53.039,-46.386 -54.232,-45.603C-54.52,-45.414 -54.808,-45.225 -55.096,-45.036C-55.159,-44.995 -55.217,-44.972 -55.242,-44.911C-55.274,-44.834 -55.242,-44.674 -55.242,-44.592L-55.242,48.849C-55.242,48.878 -55.264,49.035 -55.242,49.057C-55.222,49.077 -55.097,49.058 -55.067,49.058L47.938,49.058C48.031,49.058 48.218,49.095 48.305,49.058C48.4,49.017 48.33,49.095 48.369,48.975C48.401,48.877 48.371,48.716 48.372,48.615C48.374,48.408 48.375,48.201 48.377,47.994C48.388,46.481 48.399,44.968 48.41,43.455C48.426,41.245 48.443,39.035 48.459,36.824C48.476,34.492 48.493,32.16 48.511,29.827C48.525,27.916 48.539,26.005 48.553,24.094C48.557,23.467 48.562,22.84 48.567,22.214C48.568,22.014 48.57,21.815 48.571,21.615C48.572,21.523 48.542,21.368 48.574,21.28C48.579,21.264 48.565,21.233 48.574,21.22C48.598,21.183 48.734,21.155 48.778,21.138C49.016,21.047 49.254,20.954 49.49,20.858C50.418,20.483 51.331,20.072 52.228,19.625C54.028,18.729 55.758,17.693 57.397,16.529C60.628,14.237 63.508,11.45 65.914,8.304C68.211,5.301 70.068,1.965 71.402,-1.573C72.748,-5.14 73.558,-8.903 73.815,-12.706C74.073,-16.531 73.781,-20.394 72.933,-24.133" style="fill:white;fill-rule:nonzero;"/>
                </g>
                <g transform="matrix(0.834803,-0.550549,-0.550549,-0.834803,12.4157,46.3063)">
                    <path d="M-2.539,2.715L5.257,2.715L9.047,8.46L1.251,8.46L-2.539,2.715Z" style="fill:white;fill-rule:nonzero;"/>
                </g>
                <g transform="matrix(0.834803,-0.550549,-0.550549,-0.834803,22.6836,39.5472)">
                    <path d="M-2.539,2.715L5.257,2.715L9.047,8.46L1.251,8.46L-2.539,2.715Z" style="fill:white;fill-rule:nonzero;"/>
                </g>
                <g transform="matrix(0.834803,-0.550549,-0.550549,-0.834803,12.4157,57.8356)">
                    <path d="M-2.539,2.715L5.257,2.715L9.047,8.46L1.251,8.46L-2.539,2.715Z" style="fill:white;fill-rule:nonzero;"/>
                </g>
                <g transform="matrix(0.834803,-0.550549,-0.550549,-0.834803,12.4157,69.38)">
                    <path d="M-2.539,2.715L5.257,2.715L9.047,8.46L1.251,8.46L-2.539,2.715Z" style="fill:white;fill-rule:nonzero;"/>
                </g>
                <g transform="matrix(0.834803,-0.550549,-0.550549,-0.834803,22.6836,51.0454)">
                    <path d="M-2.539,2.715L5.257,2.715L9.047,8.46L1.251,8.46L-2.539,2.715Z" style="fill:white;fill-rule:nonzero;"/>
                </g>
                <g transform="matrix(0.834803,-0.550549,-0.550549,-0.834803,22.6836,62.6334)">
                    <path d="M-2.539,2.715L5.257,2.715L9.047,8.46L1.251,8.46L-2.539,2.715Z" style="fill:white;fill-rule:nonzero;"/>
                </g>
                <g transform="matrix(0.834803,-0.550549,-0.550549,-0.834803,32.9515,44.3121)">
                    <path d="M-2.539,2.715L5.257,2.715L9.047,8.46L1.251,8.46L-2.539,2.715Z" style="fill:white;fill-rule:nonzero;"/>
                </g>
                <g transform="matrix(1,0,0,1,15.3096,89.041)">
                    <path d="M0,-47.895L-6.508,-43.603L-6.508,-50.486L0,-54.778L0,-47.895ZM0,-36.366L-6.508,-32.074L-6.508,-38.957L0,-43.249L0,-36.366ZM0,-24.821L-6.508,-20.529L-6.508,-27.413L0,-31.705L0,-24.821ZM3.76,-34.159L10.268,-38.451L10.268,-31.568L3.76,-27.276L3.76,-34.159ZM3.76,-45.747L10.268,-50.039L10.268,-43.156L3.76,-38.864L3.76,-45.747ZM3.76,-57.245L10.268,-61.537L10.268,-54.654L3.76,-50.362L3.76,-57.245ZM14.028,-52.481L20.536,-56.772L20.536,-49.889L14.028,-45.597L14.028,-52.481ZM5.754,-7.691C13.618,-8.222 19.834,-14.766 19.834,-22.766L25.149,-22.766L25.149,-27.679L30.179,-27.679C31.765,-32.363 34.81,-36.372 38.77,-39.173C40.706,-43.676 43.498,-47.816 47.068,-51.386C48.696,-53.013 50.442,-54.479 52.286,-55.777L52.347,-67.836L48.791,-71.978L52.232,-82.971L59.641,-76.594L64.132,-76.561L77.621,-62.739C78.858,-62.65 80.083,-62.501 81.294,-62.297L65.205,-78.674L61.019,-78.674L52.232,-86.194L20.793,-65.508L12.612,-68.847L-13.015,-52.031L-13.015,38.299L2.892,38.299L2.892,-7.691L5.754,-7.691Z" style="fill:rgb(0,38,105);fill-rule:nonzero;"/>
                </g>
                <g transform="matrix(1,0,0,1,75.0167,77.5424)">
                    <path d="M0,26.418C-1.623,24.809 -2.791,22.776 -3.203,20.844L-6.479,5.71C-6.9,3.738 -6.48,1.708 -5.297,-0.007C-4.04,-1.828 -2.069,-3.064 0.111,-3.399C0.468,-3.454 0.821,-3.482 1.16,-3.482C3.014,-3.481 4.586,-2.655 5.707,-1.091C6.501,0.016 7.09,1.517 7.508,3.497L9.332,12.213L9.342,12.26L9.35,12.308C9.623,14.089 10.166,14.172 11.181,14.172C11.468,14.172 11.788,14.15 12.118,14.115L12.085,-9.657L7.63,-9.657C6.868,-17.361 0.379,-23.379 -7.514,-23.379C-15.408,-23.379 -21.897,-17.361 -22.659,-9.657L-28.047,-9.657L-28.047,-4.748L-33.44,-4.748C-33.488,3.601 -40.236,10.357 -48.572,10.404L-48.572,49.797L-40.832,49.797C-33.049,46.029 -22.155,42.565 -16.171,39.935C-15.531,39.654 -14.822,39.292 -14.628,38.62C-14.358,37.682 -15.248,36.8 -15.318,35.826C-15.398,34.708 -14.406,33.826 -13.459,33.225C-9.401,30.647 -3.776,29.143 0.962,27.264C0.635,27.003 0.312,26.727 0,26.418" style="fill:rgb(194,66,0);fill-rule:nonzero;"/>
                </g>
                <g transform="matrix(1,0,0,1,81.2646,126.686)">
                    <path d="M0,-19.946C-0.108,-19.94 -0.217,-19.937 -0.325,-19.937C-0.885,-19.937 -1.453,-20.022 -2.02,-20.173C-5.131,-18.482 -8.573,-16.715 -11.276,-15.118C-11.955,-14.717 -12.728,-14.142 -12.648,-13.358C-12.563,-12.524 -11.604,-12.142 -10.931,-11.642C-9.731,-10.749 -9.28,-8.982 -9.905,-7.623C-10.233,-6.91 -10.803,-6.339 -11.379,-5.805C-13.166,-4.146 -16.3,-1.63 -19.338,0.654L5.92,0.654L5.891,-20.6C4.393,-20.322 2.542,-20.083 0,-19.946" style="fill:rgb(194,66,0);fill-rule:nonzero;"/>
                </g>
                <g transform="matrix(1,0,0,1,121.983,81.5749)">
                    <path d="M0,-35.265C-3.223,-40.675 -7.831,-45.23 -13.272,-48.398C-19.063,-51.77 -25.753,-53.51 -32.452,-53.42C-38.571,-53.338 -44.632,-51.734 -49.98,-48.758C-55.563,-45.652 -60.302,-41.104 -63.645,-35.661C-64.071,-34.967 -64.471,-34.257 -64.851,-33.536C-60.55,-35.678 -55.615,-36.422 -50.872,-35.667C-46.744,-35.01 -42.832,-33.212 -39.636,-30.52C-37.863,-29.028 -36.316,-27.27 -35.06,-25.323C-35.06,-25.61 -35.067,-25.903 -35.074,-26.195C-35.019,-26.167 -34.956,-26.155 -34.899,-26.131L-34.902,-28.341C-34.902,-33.087 -31.041,-36.948 -26.294,-36.948C-21.548,-36.948 -17.687,-33.087 -17.687,-28.341L-17.687,-28.325L-17.896,-5.386C-17.743,-5.379 -17.593,-5.375 -17.45,-5.375C-16.761,-5.375 -16.298,-5.466 -16.075,-5.644C-15.825,-5.842 -15.648,-6.368 -15.575,-7.124L-15.57,-7.176L-15.562,-7.228L-14.195,-15.983C-13.897,-17.942 -13.394,-19.431 -12.658,-20.537C-11.607,-22.115 -10.056,-22.949 -8.175,-22.949C-7.963,-22.949 -7.744,-22.938 -7.525,-22.917C-5.437,-22.717 -3.5,-21.65 -2.21,-19.99C-0.993,-18.425 -0.484,-16.518 -0.778,-14.622L-0.78,-14.612L-3.162,0.222C-3.458,2.123 -4.487,4.143 -5.986,5.766C-7.684,7.605 -9.701,8.62 -11.665,8.626L-11.897,8.627C-14.446,8.627 -16.327,8.498 -18.021,8.286L-18.112,18.245C-12.751,16.095 -7.922,12.681 -4.095,8.356C-0.238,3.997 2.573,-1.259 4.035,-6.894C4.905,-10.246 5.297,-13.717 5.213,-17.178C5.059,-23.535 3.254,-29.803 0,-35.265" style="fill:rgb(255,219,34);fill-rule:nonzero;"/>
                </g>
                <g transform="matrix(1,0,0,1,114.289,113.317)">
                    <path d="M0,-52.891C-0.166,-52.907 -0.326,-52.915 -0.481,-52.915C-3.257,-52.915 -4.296,-50.412 -4.745,-47.458L-6.113,-38.696C-6.374,-35.969 -7.734,-35.341 -9.756,-35.341C-10.433,-35.341 -11.184,-35.411 -11.994,-35.497L-11.769,-60.083C-11.769,-63.84 -14.843,-66.914 -18.6,-66.914C-22.358,-66.914 -25.432,-63.84 -25.432,-60.083L-25.375,-20.117C-26.373,-19.955 -27.286,-19.826 -28.091,-19.826C-29.977,-19.826 -31.269,-20.535 -31.678,-23.197L-33.503,-31.913C-34.141,-34.939 -35.344,-37.48 -38.112,-37.48C-38.359,-37.48 -38.618,-37.46 -38.891,-37.418C-42.22,-36.907 -44.717,-33.729 -44.014,-30.436L-40.739,-15.306C-40.052,-12.087 -36.643,-8.344 -33.349,-8.344C-33.273,-8.344 -33.196,-8.346 -33.119,-8.35C-29.529,-8.543 -27.345,-8.945 -25.36,-9.436L-25.327,14.023L-12.445,14.023L-12.085,-25.512C-9.972,-25.156 -7.774,-24.892 -4.203,-24.892L-3.976,-24.892C-0.823,-24.902 2.296,-28.683 2.778,-31.8L5.16,-46.636C5.643,-49.752 3.139,-52.59 0,-52.891" style="fill:rgb(131,172,22);fill-rule:nonzero;"/>
                </g>
            </g>
        </g>
    </g>
</svg>
