<?xml version="1.0" encoding="UTF-8" standalone="no"?>
<!DOCTYPE svg PUBLIC "-//W3C//DTD SVG 1.1//EN" "http://www.w3.org/Graphics/SVG/1.1/DTD/svg11.dtd">
<svg width="100%" height="100%" viewBox="0 0 251 343" version="1.1" xmlns="http://www.w3.org/2000/svg" xmlns:xlink="http://www.w3.org/1999/xlink" xml:space="preserve" xmlns:serif="http://www.serif.com/" style="fill-rule:evenodd;clip-rule:evenodd;stroke-linejoin:round;stroke-miterlimit:2;">
    <path d="M248.17,108.78C246.557,101.7 243.923,94.892 240.35,88.57C233.159,75.937 222.497,65.625 209.63,58.86C206.269,57.107 202.779,55.612 199.19,54.39C198.31,54.09 197.43,53.8 196.53,53.53C196.113,53.462 195.707,53.341 195.32,53.17C195.206,53.071 195.099,52.964 195,52.85L190.41,48.17L182.21,39.83C179.037,36.59 175.86,33.353 172.68,30.12L164.19,21.48L159,16.2C158.8,15.99 158.56,15.63 158.29,15.55C158.048,15.515 157.802,15.515 157.56,15.55L150.4,15.55C150.23,15.58 150.056,15.528 149.93,15.41C149,14.76 148.17,13.9 147.31,13.16L137.58,4.83L133.47,1.32L132.29,0.32C132.22,0.26 132.02,0.02 131.93,0.01C131.84,-0 131.3,0.42 131.16,0.51L129.16,1.84L122.16,6.45L112.33,12.92L101,20.33L89.8,27.69L80.1,34.1L73.21,38.63L71.32,39.88C71.17,39.98 70.85,40.29 70.66,40.31C70.47,40.33 70,40 69.8,40L67.8,39.16L61.8,36.72L56.41,34.52C56.03,34.36 55.29,33.88 54.9,33.98C54.452,34.193 54.035,34.465 53.66,34.79L51,36.46L42.77,41.86L32.03,48.86L20.63,56.35L10.6,63L3.72,67.5L2.06,68.59C1.93,68.67 1.82,68.72 1.77,68.83C1.74,69.036 1.74,69.244 1.77,69.45L1.77,249.47C1.77,249.51 2.05,249.47 2.11,249.47L200.11,249.47C200.345,249.51 200.585,249.51 200.82,249.47C201,249.4 200.82,249.55 200.94,249.31C200.97,249.081 200.97,248.849 200.94,248.62L200.94,247.43C200.94,244.52 200.94,241.61 201.01,238.7L201.1,225.96C201.1,221.467 201.133,216.983 201.2,212.51C201.2,208.83 201.227,205.163 201.28,201.51L201.28,196.74C201.25,196.528 201.25,196.312 201.28,196.1C201.31,195.888 201.28,196.01 201.28,195.98C201.28,195.95 201.59,195.86 201.68,195.82L203.04,195.29C204.83,194.56 206.58,193.77 208.31,192.92C211.77,191.179 215.09,189.173 218.24,186.92C224.463,182.502 229.985,177.172 234.62,171.11C243.56,159.444 248.843,145.386 249.8,130.72C250.323,123.366 249.773,115.976 248.17,108.78ZM108,94.37L107.81,94.48L108,94.37Z" style="fill:white;fill-rule:nonzero;"/>
    <path d="M38.41,96.46L50.91,88.21L50.91,74.97L38.41,83.22L38.41,96.46Z" style="fill:none;fill-rule:nonzero;"/>
    <path d="M38.41,74.35L50.91,66.1L50.91,52.87L38.41,61.12L38.41,74.35Z" style="fill:none;fill-rule:nonzero;"/>
    <path d="M18.67,87.35L31.18,79.1L31.18,65.86L18.67,74.11L18.67,87.35Z" style="fill:white;fill-rule:nonzero;"/>
    <path d="M38.41,74.35L50.91,66.1L50.91,52.87L38.41,61.12L38.41,74.35Z" style="fill:white;fill-rule:nonzero;"/>
    <path d="M18.67,109.51L31.18,101.26L31.18,88.03L18.67,96.28L18.67,109.51Z" style="fill:white;fill-rule:nonzero;"/>
    <path d="M18.67,131.7L31.18,123.45L31.18,110.22L18.67,118.47L18.67,131.7Z" style="fill:white;fill-rule:nonzero;"/>
    <path d="M38.41,96.46L50.91,88.21L50.91,74.97L38.41,83.22L38.41,96.46Z" style="fill:white;fill-rule:nonzero;"/>
    <path d="M38.41,118.73L50.91,110.48L50.91,97.25L38.41,105.5L38.41,118.73Z" style="fill:white;fill-rule:nonzero;"/>
    <path d="M58.14,83.51L70.65,75.26L70.65,62.03L58.14,70.28L58.14,83.51Z" style="fill:white;fill-rule:nonzero;"/>
    <path d="M38.41,96.46L50.91,88.21L50.91,74.97L38.41,83.22L38.41,96.46Z" style="fill:none;fill-rule:nonzero;"/>
    <path d="M38.41,74.35L50.91,66.1L50.91,52.87L38.41,61.12L38.41,74.35Z" style="fill:none;fill-rule:nonzero;"/>
    <path d="M38.41,96.46L50.91,88.21L50.91,74.97L38.41,83.22L38.41,96.46Z" style="fill:none;fill-rule:nonzero;"/>
    <path d="M38.41,74.35L50.91,66.1L50.91,52.87L38.41,61.12L38.41,74.35Z" style="fill:none;fill-rule:nonzero;"/>
    <path d="M38.41,96.46L50.91,88.21L50.91,74.97L38.41,83.22L38.41,96.46Z" style="fill:none;fill-rule:nonzero;"/>
    <path d="M38.41,74.35L50.91,66.1L50.91,52.87L38.41,61.12L38.41,74.35Z" style="fill:none;fill-rule:nonzero;"/>
    <path d="M230.31,80.55L230.69,81.01L230.31,80.55Z" style="fill:none;fill-rule:nonzero;"/>
    <path d="M228.24,78.11L228.58,78.5L228.24,78.11Z" style="fill:none;fill-rule:nonzero;"/>
    <path d="M227.21,77L227.49,77.3L227.21,77Z" style="fill:none;fill-rule:nonzero;"/>
    <path d="M231.32,81.82L231.69,82.3L231.32,81.82Z" style="fill:none;fill-rule:nonzero;"/>
    <path d="M226.23,75.94L226.36,76.08L226.23,75.94Z" style="fill:none;fill-rule:nonzero;"/>
    <path d="M232.31,83.12L232.67,83.61L232.31,83.12Z" style="fill:none;fill-rule:nonzero;"/>
    <path d="M229.29,79.31L229.65,79.74L229.29,79.31Z" style="fill:none;fill-rule:nonzero;"/>
    <path d="M234.19,85.79C234.3,85.94 234.4,86.1 234.5,86.26C234.4,86.1 234.3,85.94 234.19,85.79Z" style="fill:none;fill-rule:nonzero;"/>
    <path d="M233.26,84.44L233.61,84.94L233.26,84.44Z" style="fill:none;fill-rule:nonzero;"/>
    <path d="M226.15,117.89L226.37,118.05L226.15,117.89Z" style="fill:none;fill-rule:nonzero;"/>
    <path d="M226.86,118.45L227.1,118.66L226.86,118.45Z" style="fill:none;fill-rule:nonzero;"/>
    <path d="M224.06,116.69L224.07,116.69L224.06,116.69Z" style="fill:none;fill-rule:nonzero;"/>
    <path d="M225.52,117.46L225.59,117.51L225.52,117.46Z" style="fill:none;fill-rule:nonzero;"/>
    <path d="M227.55,119.08L227.74,119.29L227.55,119.08Z" style="fill:none;fill-rule:nonzero;"/>
    <path d="M50.91,74.97L38.41,83.22L38.41,96.46L50.91,88.21L50.91,74.97Z" style="fill:none;fill-rule:nonzero;"/>
    <path d="M50.91,52.87L38.41,61.12L38.41,74.35L50.91,66.1L50.91,52.87Z" style="fill:none;fill-rule:nonzero;"/>
    <path d="M42.24,156.38C57.408,155.363 69.334,142.582 69.3,127.38L79.52,127.38L79.52,118L89.19,118C92.224,109.075 98.009,101.336 105.71,95.9C111.273,83.074 120.272,72.03 131.71,63.99L131.82,40.8L124.99,32.8L131.6,11.67L145.85,23.93L154.48,23.99L180.41,50.56C182.79,50.73 185.14,51.02 187.47,51.41L156.52,19.93L148.52,19.93L131.58,5.47L71.15,45.24L55.42,38.82L6.16,71.15L6.16,244.79L36.74,244.79L36.74,156.38L42.24,156.38ZM58.14,70.28L70.65,62L70.65,75.26L58.14,83.51L58.14,70.28ZM38.41,61.12L50.92,52.87L50.92,66.1L38.41,74.35L38.41,61.12ZM38.41,83.23L50.92,75L50.92,88.21L38.41,96.46L38.41,83.23ZM38.41,105.5L50.92,97.25L50.92,110.48L38.41,118.73L38.41,105.5ZM31.18,123.5L18.67,131.7L18.67,118.47L31.18,110.22L31.18,123.5ZM31.18,101.31L18.67,109.56L18.67,96.28L31.18,88L31.18,101.31ZM31.18,79.15L18.67,87.35L18.67,74.12L31.18,65.86L31.18,79.15Z" style="fill:rgb(0,38,105);fill-rule:nonzero;"/>
    <path d="M146,199.85C142.98,196.929 140.847,193.212 139.85,189.13L133.5,160C132.696,156.179 133.519,152.191 135.77,149C138.196,145.495 141.958,143.136 146.17,142.48C146.831,142.374 147.5,142.32 148.17,142.32C151.666,142.285 154.954,144.012 156.91,146.91C158.658,149.585 159.84,152.59 160.38,155.74L163.88,172.49L163.88,172.67C164.4,176.1 165.45,176.26 167.4,176.26C167.95,176.26 168.56,176.21 169.2,176.15L169.13,130.45L160.57,130.45C159.107,115.551 146.43,104.058 131.46,104.058C116.49,104.058 103.813,115.551 102.35,130.45L92,130.45L92,139.89L81.67,139.89C81.589,155.823 68.512,168.912 52.58,169.01L52.58,244.74L67.46,244.74C82.46,237.5 103.36,230.84 114.87,225.74C116.1,225.2 117.46,224.5 117.87,223.21C118.39,221.41 116.68,219.71 116.55,217.84C116.39,215.69 118.3,214 120.12,212.84C127.92,207.84 138.74,204.99 147.84,201.38C147.201,200.902 146.586,200.392 146,199.85Z" style="fill:rgb(194,66,0);fill-rule:nonzero;"/>
    <path d="M158,205.19L157.38,205.19C156.278,205.179 155.182,205.024 154.12,204.73C148.12,207.98 141.52,211.38 136.33,214.45C135.02,215.22 133.54,216.33 133.69,217.83C133.84,219.33 135.69,220.17 136.99,221.13C139.333,222.944 140.16,226.137 138.99,228.86C138.286,230.199 137.325,231.385 136.16,232.35C132.72,235.54 126.7,240.35 120.86,244.77L169.42,244.77L169.36,203.91C165.606,204.59 161.811,205.018 158,205.19Z" style="fill:rgb(194,66,0);fill-rule:nonzero;"/>
    <path d="M236.24,89C223.37,67.38 199.996,54.092 174.836,54.092C149.99,54.092 126.863,67.05 113.89,88.24C113.07,89.573 112.297,90.937 111.57,92.33C131.794,82.28 156.624,89.125 168.84,108.12L168.84,106.44C168.95,106.49 169.07,106.52 169.18,106.56L169.18,102.31C169.18,93.231 176.651,85.76 185.73,85.76C194.809,85.76 202.28,93.231 202.28,102.31L201.87,146.4L202.73,146.4C203.644,146.494 204.566,146.317 205.38,145.89C206.034,145.085 206.387,144.077 206.38,143.04L206.38,142.84L209,126.09C209.353,122.99 210.377,120.004 212,117.34C213.866,114.4 217.138,112.638 220.62,112.7C221.03,112.7 221.45,112.7 221.87,112.76C225.871,113.177 229.533,115.212 232,118.39C234.314,121.295 235.311,125.039 234.75,128.71L230.17,157.22C229.425,161.222 227.539,164.925 224.74,167.88C221.48,171.41 217.6,173.37 213.82,173.38L213.38,173.38C209.447,173.413 205.515,173.193 201.61,172.72L201.43,191.87C228.469,181.016 246.282,154.67 246.282,125.535C246.282,112.676 242.812,100.052 236.24,89Z" style="fill:rgb(255,219,34);fill-rule:nonzero;"/>
    <path d="M221.45,116.16L220.52,116.16C215.19,116.16 213.19,120.98 212.33,126.65L209.7,143.5C209.19,148.74 206.58,149.95 202.7,149.95C201.4,149.95 199.96,149.81 198.4,149.65L198.83,102.38C198.83,95.177 192.903,89.25 185.7,89.25C178.497,89.25 172.57,95.177 172.57,102.38C172.57,102.38 172.68,179.21 172.68,179.21C170.957,179.53 169.212,179.717 167.46,179.77C163.83,179.77 161.35,178.41 160.56,173.29L157,156.48C155.78,150.67 153.47,145.78 148.14,145.78C147.641,145.782 147.143,145.822 146.65,145.9C140.25,146.9 135.45,152.99 136.8,159.33L143.09,188.41C144.41,194.6 150.97,201.79 157.3,201.79L157.74,201.79C162.771,201.602 167.771,200.902 172.66,199.7L172.72,244.8L197.48,244.8L198.18,168.8C203.196,169.663 208.281,170.064 213.37,170L213.8,170C219.87,170 225.86,162.71 226.8,156.72L231.38,128.2C232.29,122.19 227.48,116.74 221.45,116.16Z" style="fill:rgb(131,172,22);fill-rule:nonzero;"/>
    <path d="M39.24,301.17L24.24,300.99L24.24,341.53L14.94,341.53L14.94,300.88L0,300.7L0,293.29L39.24,293.29L39.24,301.17Z" style="fill:white;fill-rule:nonzero;"/>
    <path d="M78.12,302.7L78.12,324.05C78.12,333.91 73.06,342.18 59.94,342.18C46.94,342.18 41.94,334.09 41.94,324.05L41.94,302.7L50.94,302.7L50.94,324.05C50.94,330.38 53.17,334.74 59.94,334.74C66.71,334.74 69.14,330.42 69.14,324.05L69.14,302.7L78.12,302.7Z" style="fill:white;fill-rule:nonzero;"/>
    <path d="M93.08,322.4C93.08,329.19 97.08,334.31 105.24,334.31C108.974,334.354 112.633,333.251 115.72,331.15L115.81,331.15L118.26,338.71C113.947,340.994 109.14,342.185 104.26,342.18C90.92,342.18 83.88,333.18 83.88,322.18C83.88,311.18 90.78,302 105.22,302C109.569,301.911 113.878,302.857 117.79,304.76L115.16,312.56L115.09,312.56C112.187,310.743 108.824,309.796 105.4,309.83C97.4,309.86 93.08,315.29 93.08,322.4Z" style="fill:white;fill-rule:nonzero;"/>
    <path d="M152,312.2C147.94,310.01 144.76,308.91 141,308.91C136.27,308.91 133.47,310.63 133.47,313.33C133.47,320.71 155.47,316.86 155.47,330.41C155.47,337.86 148.84,342.29 138.04,342.29C132.74,342.406 127.515,341.019 122.97,338.29L125.24,330.87L125.35,330.87C128.81,333.847 133.268,335.415 137.83,335.26C143.35,335.26 146.28,333.55 146.28,330.55C146.28,322.55 124.28,327.38 124.28,313.47C124.28,306.47 129.93,301.9 140.81,301.9C145.523,301.887 150.176,302.969 154.4,305.06L152.16,312.16L152,312.2Z" style="fill:white;fill-rule:nonzero;"/>
    <path d="M202.43,322C202.43,334.21 193.87,342.23 181.16,342.23C168.45,342.23 160.33,334.41 160.33,322.29C160.33,310.17 168.67,302.08 181.33,302.08C193.99,302.08 202.43,309.87 202.43,322ZM193.17,322.07C193.24,314.07 188.51,309.55 181.45,309.55C174.39,309.55 169.63,314.22 169.61,322.22C169.56,330.07 173.98,334.79 181.13,334.79C188.28,334.79 193.13,330.09 193.17,322L193.17,322.07Z" style="fill:white;fill-rule:nonzero;"/>
    <path d="M245.88,302.7L245.88,341.53L238.36,341.53L225.07,325.79C221.98,322.19 218.34,317.4 216.5,314.93C216.65,318.08 216.91,324.27 216.91,329.05L216.91,341.53L208.74,341.53L208.74,302.7L216.13,302.7L229.6,318.4C232.72,321.99 236.36,326.91 238.17,329.4C237.99,326.25 237.73,319.86 237.73,315.2L237.73,302.7L245.88,302.7Z" style="fill:white;fill-rule:nonzero;"/>
    <path d="M75.57,279.06C75.672,279.057 75.774,279.074 75.87,279.11C75.981,279.153 76.08,279.222 76.16,279.31L77.83,281.07C77.112,282.015 76.166,282.761 75.08,283.24C73.835,283.754 72.497,284.003 71.15,283.97C69.875,283.993 68.609,283.755 67.43,283.27C66.366,282.813 65.414,282.131 64.64,281.27C63.858,280.417 63.26,279.413 62.88,278.32C62.46,277.129 62.25,275.873 62.26,274.61C62.262,273.337 62.513,272.076 63,270.9C63.896,268.64 65.717,266.867 68,266.03C69.235,265.558 70.548,265.324 71.87,265.34C72.521,265.337 73.171,265.397 73.81,265.52C74.388,265.634 74.953,265.801 75.5,266.02C76.008,266.223 76.494,266.478 76.95,266.78C77.378,267.07 77.774,267.405 78.13,267.78L76.7,269.7C76.606,269.819 76.499,269.926 76.38,270.02C76.224,270.125 76.037,270.174 75.85,270.16C75.704,270.162 75.559,270.128 75.43,270.06C75.28,269.993 75.136,269.913 75,269.82L74.51,269.51C74.307,269.384 74.093,269.276 73.87,269.19C73.589,269.092 73.301,269.012 73.01,268.95C72.628,268.877 72.239,268.844 71.85,268.85C71.126,268.838 70.407,268.978 69.74,269.26C69.082,269.506 68.488,269.895 68,270.4C67.551,270.939 67.211,271.561 67,272.23C66.731,273.008 66.599,273.827 66.61,274.65C66.596,275.496 66.728,276.338 67,277.14C67.204,277.821 67.544,278.454 68,279C68.417,279.491 68.941,279.88 69.53,280.14C70.123,280.399 70.763,280.528 71.41,280.52C71.744,280.523 72.078,280.506 72.41,280.47C72.71,280.438 73.005,280.37 73.29,280.27C73.56,280.178 73.822,280.061 74.07,279.92C74.331,279.757 74.579,279.573 74.81,279.37C74.91,279.288 75.021,279.221 75.14,279.17C75.268,279.09 75.419,279.051 75.57,279.06Z" style="fill:white;fill-rule:nonzero;"/>
    <rect x="84.25" y="265.54" width="4.25" height="18.23" style="fill:white;fill-rule:nonzero;"/>
    <path d="M109.13,265.54L109.13,268.89L104,268.89L104,283.77L99.77,283.77L99.77,268.89L94.64,268.89L94.64,265.54L109.13,265.54Z" style="fill:white;fill-rule:nonzero;"/>
    <path d="M125.1,276.84L125.1,283.77L120.87,283.77L120.87,276.84L114.26,265.54L118,265.54C118.31,265.522 118.617,265.61 118.87,265.79C119.096,265.965 119.278,266.191 119.4,266.45L121.98,271.76C122.19,272.18 122.38,272.58 122.55,272.93C122.72,273.28 122.88,273.65 123.02,274C123.144,273.63 123.295,273.269 123.47,272.92L124.03,271.76L126.58,266.45C126.633,266.333 126.704,266.225 126.79,266.13C126.88,266.02 126.98,265.92 127.09,265.83C127.206,265.737 127.338,265.666 127.48,265.62C127.633,265.562 127.796,265.535 127.96,265.54L131.72,265.54L125.1,276.84Z" style="fill:white;fill-rule:nonzero;"/>
    <path d="M165.2,274.65C165.209,275.909 164.978,277.158 164.52,278.33C164.084,279.447 163.431,280.466 162.6,281.33C161.75,282.199 160.729,282.88 159.6,283.33C157.104,284.276 154.346,284.276 151.85,283.33C150.722,282.879 149.7,282.198 148.85,281.33C148.013,280.469 147.357,279.449 146.92,278.33C146.014,275.961 146.014,273.339 146.92,270.97C147.35,269.848 148.007,268.826 148.85,267.97C149.703,267.106 150.724,266.425 151.85,265.97C154.345,265.017 157.105,265.017 159.6,265.97C160.727,266.424 161.748,267.105 162.6,267.97C163.433,268.832 164.086,269.852 164.52,270.97C164.979,272.142 165.21,273.391 165.2,274.65ZM160.87,274.65C160.879,273.824 160.761,273.001 160.52,272.21C160.313,271.539 159.973,270.917 159.52,270.38C159.079,269.878 158.528,269.485 157.91,269.23C157.225,268.951 156.49,268.815 155.75,268.83C155.001,268.815 154.256,268.951 153.56,269.23C152.942,269.485 152.391,269.878 151.95,270.38C151.493,270.914 151.153,271.537 150.95,272.21C150.484,273.806 150.484,275.504 150.95,277.1C151.153,277.773 151.493,278.396 151.95,278.93C152.391,279.432 152.942,279.825 153.56,280.08C154.258,280.351 155.002,280.483 155.75,280.47C156.489,280.483 157.223,280.351 157.91,280.08C158.528,279.825 159.079,279.432 159.52,278.93C159.973,278.393 160.313,277.771 160.52,277.1C160.761,276.306 160.88,275.48 160.87,274.65Z" style="fill:white;fill-rule:nonzero;"/>
    <path d="M183.61,265.54L183.61,268.79L176.13,268.79L176.13,273.41L182.36,273.41L182.36,276.68L176.13,276.68L176.13,283.77L171.87,283.77L171.87,265.54L183.61,265.54Z" style="fill:white;fill-rule:nonzero;"/>
</svg>
